<svg width="34" height="34" viewBox="0 0 34 34" fill="none" xmlns="http://www.w3.org/2000/svg">
<g id="chart-1">
<path id="Vector" d="M33.8847 16.1384C34.0296 25.1215 26.7831 32.546 17.7324 32.6869C8.68171 32.8278 1.20661 25.6404 1.05493 16.6572C0.903259 7.67402 8.15424 0.24955 17.2049 0.108664C26.2557 -0.0322219 33.7398 7.15744 33.8847 16.1384ZM9.62119 16.5252C9.65359 18.0567 10.1445 19.5444 11.032 20.8005C11.9194 22.0566 13.1637 23.0249 14.6077 23.5832C16.0517 24.1415 17.6307 24.2647 19.1455 23.9373C20.6604 23.6099 22.0431 22.8466 23.1192 21.7437C24.1953 20.6408 24.9165 19.2477 25.1919 17.7403C25.4673 16.2328 25.2846 14.6786 24.6666 13.2736C24.0487 11.8687 23.0233 10.6761 21.7199 9.84627C20.4165 9.01645 18.8935 8.58662 17.343 8.61103C15.2571 8.65041 13.2723 9.50599 11.8245 10.9899C10.3767 12.4738 9.58422 14.4646 9.62119 16.5252Z" fill="#F3F3F3"/>
<path id="Vector_2" d="M33.8847 16.1384C34.0296 25.1216 26.7831 32.546 17.7324 32.6869L17.5943 24.189C19.6855 24.1561 21.6778 23.3039 23.1329 21.8199C24.5881 20.3359 25.3868 18.3417 25.3535 16.2759C25.3202 14.2102 24.4575 12.2421 22.9553 10.8046C21.453 9.36719 19.4342 8.57814 17.343 8.61105L17.2049 0.113163C26.2556 -0.0344318 33.7375 7.15747 33.8847 16.1384Z" fill="#5D6C73"/>
<path id="Vector_3" d="M17.6215 32.8032L17.4811 24.0817H17.5943C19.1285 24.0506 20.6191 23.5717 21.8783 22.7055C23.1376 21.8393 24.1093 20.6244 24.671 19.2138C25.2328 17.8032 25.3595 16.2599 25.0352 14.7783C24.7109 13.2967 23.9501 11.943 22.8486 10.8876C22.1222 10.1847 21.2616 9.63135 20.3168 9.25974C19.3721 8.88813 18.362 8.70564 17.3453 8.72286H17.2321L17.0895 0.00134517H17.2027C21.5947 -0.0542203 25.8297 1.61363 28.9784 4.63892C32.1271 7.66422 33.9323 11.7999 33.9979 16.1384C34.1428 25.1842 26.8488 32.6601 17.7347 32.8054L17.6215 32.8032ZM17.7098 24.3053L17.8433 32.5796C26.7809 32.3761 33.9164 25.0254 33.7715 16.1429C33.7071 11.883 31.9426 7.82053 28.8618 4.83916C25.781 1.85779 21.6331 0.198684 17.3204 0.222739L17.454 8.497C19.542 8.51425 21.5404 9.33723 23.0225 10.7902C24.5046 12.2432 25.3529 14.211 25.3863 16.2734C25.4197 18.3358 24.6355 20.3294 23.2012 21.8284C21.7669 23.3275 19.7961 24.2132 17.7098 24.2964V24.3053Z" fill="#5D6C73"/>
<path id="Vector_4" d="M19.2062 33.9974C8.61832 34.1673 0.169786 26.0496 0 15.5391L10.0219 15.3803C10.1034 20.4052 13.9745 23.5673 19.0364 23.4868L19.2062 33.9974Z" fill="#374951"/>
<path id="Vector_5" d="M5.75461 15.7224C5.818 15.7649 4.87173 17.2342 3.64021 18.9986C2.4087 20.763 1.35603 22.1629 1.29264 22.1294C1.22926 22.0958 2.17779 20.6177 3.4093 18.851C4.64082 17.0843 5.69349 15.6688 5.75461 15.7224Z" fill="#263238"/>
<path id="Vector_6" d="M10.1147 16.5387C10.1781 16.5834 8.77678 18.7012 6.98611 21.2707C5.19544 23.8402 3.68774 25.8864 3.62435 25.8439C3.56097 25.8014 4.96226 23.6836 6.7552 21.1141C8.54814 18.5446 10.0558 16.4962 10.1147 16.5387Z" fill="#263238"/>
<path id="Vector_7" d="M12.2336 20.9419C12.2993 20.9844 11.0361 22.9032 9.41745 25.2244C7.79882 27.5457 6.43375 29.3929 6.37036 29.3504C6.30697 29.3079 7.56792 27.3891 9.18654 25.0679C10.8052 22.7466 12.1702 20.8972 12.2336 20.9419Z" fill="#263238"/>
<path id="Vector_8" d="M15.9236 23.3773C15.987 23.4198 14.7261 25.3363 13.1074 27.6598C11.4888 29.9833 10.1237 31.8237 10.0558 31.7857C9.98792 31.7477 11.2534 29.8245 12.8743 27.501C14.4952 25.1775 15.8602 23.3258 15.9236 23.3773Z" fill="#263238"/>
<path id="Vector_9" d="M19.0839 26.4566C19.1496 26.5013 18.1173 28.0869 16.7839 30.0011C15.4505 31.9154 14.3141 33.4405 14.2507 33.3891C14.1873 33.3377 15.2173 31.7588 16.553 29.8446C17.8886 27.9303 19.0205 26.4231 19.0839 26.4566Z" fill="#263238"/>
</g>
</svg>
