<svg width="34" height="38" viewBox="0 0 34 38" fill="none" xmlns="http://www.w3.org/2000/svg">
<g id="Group">
<g id="Group_2">
<path id="Vector" d="M33.5622 33.1783L27.7547 2.57416H5.88547L0.0779612 33.1783C-0.349123 35.4392 1.03262 37.6093 2.90006 37.6093H30.7359C32.6076 37.6093 33.9893 35.4438 33.558 33.1783H33.5622Z" fill="#7A8E98"/>
<g id="Group_3">
<path id="Vector_2" d="M17.3916 2.57869H5.3286C4.67123 2.57869 4.13947 2.00211 4.13947 1.28933C4.13947 0.576548 4.67123 -3.05176e-05 5.3286 -3.05176e-05H17.3916V2.57869Z" fill="#7A8E98"/>
<path id="Vector_3" d="M16.2444 2.57866H28.3074C28.9648 2.57866 29.4965 2.00208 29.4965 1.2893C29.4965 0.576517 28.9648 -6.10352e-05 28.3074 -6.10352e-05H16.2444V2.57866Z" fill="#7A8E98"/>
</g>
<g id="Group_4" opacity="0.3">
<path id="Vector_4" d="M17.3916 2.57869H5.3286C4.67123 2.57869 4.13947 2.00211 4.13947 1.28933C4.13947 0.576548 4.67123 -3.05176e-05 5.3286 -3.05176e-05H17.3916V2.57869Z" fill="white"/>
<path id="Vector_5" d="M16.2444 2.57866H28.3074C28.9648 2.57866 29.4965 2.00208 29.4965 1.2893C29.4965 0.576517 28.9648 -6.10352e-05 28.3074 -6.10352e-05H16.2444V2.57866Z" fill="white"/>
</g>
<path id="Vector_6" opacity="0.3" d="M33.5622 33.1783L27.7547 2.57416H5.88547L0.0779612 33.1783C-0.349123 35.4392 1.03262 37.6093 2.90006 37.6093H30.7359C32.6076 37.6093 33.9893 35.4438 33.558 33.1783H33.5622Z" fill="white"/>
<path id="Vector_7" opacity="0.3" d="M26.4902 2.57867H7.22531L1.83652 32.8696C1.59785 34.2179 2.42271 35.4937 3.53229 35.4937H30.179C31.2886 35.4937 32.1176 34.2179 31.8748 32.8696L26.486 2.57867H26.4902Z" fill="white"/>
<path id="Vector_8" opacity="0.3" d="M5.88545 2.57867L5.69702 3.55932H27.9389L27.7547 2.57867H5.88545Z" fill="black"/>
<path id="Vector_9" opacity="0.3" d="M10.4159 1.45728H6.09061C5.87288 1.45728 5.69702 1.2666 5.69702 1.03052C5.69702 0.794441 5.87288 0.60376 6.09061 0.60376H10.4159C10.6336 0.60376 10.8095 0.794441 10.8095 1.03052C10.8095 1.2666 10.6336 1.45728 10.4159 1.45728Z" fill="white"/>
<path id="Vector_10" opacity="0.3" d="M11.9567 1.45728H11.5171C11.2994 1.45728 11.1235 1.2666 11.1235 1.03052C11.1235 0.794441 11.2994 0.60376 11.5171 0.60376H11.9567C12.1745 0.60376 12.3503 0.794441 12.3503 1.03052C12.3503 1.2666 12.1745 1.45728 11.9567 1.45728Z" fill="white"/>
<path id="Vector_11" d="M31.879 32.8696L29.3123 18.4415L4.3739 18.6049L1.83652 32.8696C1.59785 34.218 2.42271 35.4937 3.53229 35.4937H30.179C31.2886 35.4937 32.1176 34.218 31.8748 32.8696H31.879Z" fill="#7A8E98"/>
<path id="Vector_12" d="M16.8724 17.8603C9.97206 17.8603 4.37392 18.1917 4.37392 18.6049C4.37392 19.018 9.96787 19.3494 16.8724 19.3494C23.7769 19.3494 29.3709 19.018 29.3709 18.6049C29.3709 18.1917 23.7769 17.8603 16.8724 17.8603Z" fill="#7A8E98"/>
<path id="Vector_13" opacity="0.3" d="M16.8724 17.8603C9.97206 17.8603 4.37392 18.1917 4.37392 18.6049C4.37392 19.018 9.96787 19.3494 16.8724 19.3494C23.7769 19.3494 29.3709 19.018 29.3709 18.6049C29.3709 18.1917 23.7769 17.8603 16.8724 17.8603Z" fill="black"/>
</g>
<g id="Group_5" opacity="0.3">
<path id="Vector_14" d="M11.2407 7.60448C11.986 8.02216 11.7809 9.12992 11.7181 9.57484C11.2617 12.7665 11.1193 15.1273 10.4996 18.3053C10.307 19.2859 9.98042 20.2756 9.33979 21.002C8.69916 21.7239 7.56865 22.0462 6.84428 21.4288C6.05711 20.7569 6.13666 19.463 6.29577 18.3915C6.62236 16.1715 6.94477 13.9559 7.27136 11.7359C7.40116 10.8415 7.53934 9.92896 7.91618 9.12084C8.2972 8.31272 8.96295 7.60902 9.78781 7.46374C9.78781 7.46374 10.7885 7.35931 11.2365 7.60901L11.2407 7.60448Z" fill="white"/>
</g>
<path id="Vector_15" opacity="0.3" d="M8.90856 28.2161C8.61127 29.687 7.60637 30.6995 6.66428 30.477C5.72218 30.2546 5.20298 28.8789 5.50026 27.408C5.79755 25.937 6.80244 24.9246 7.74454 25.147C8.68664 25.3695 9.20584 26.7451 8.90856 28.2161Z" fill="white"/>
<path id="Vector_16" opacity="0.5" d="M30.1665 34.7355H3.51979C2.64887 34.7355 1.9538 33.9501 1.81144 32.9604C1.62302 34.2724 2.43533 35.4937 3.51979 35.4937H30.1665C31.2509 35.4937 32.0633 34.2724 31.8748 32.9604C31.7325 33.9501 31.0374 34.7355 30.1665 34.7355Z" fill="white"/>
</g>
</svg>
