<svg width="150" height="150" viewBox="0 0 150 150" fill="none" xmlns="http://www.w3.org/2000/svg">
<g id="time-flies/rafiki">
<g id="background-complete">
<path id="Vector" d="M137.004 37.8947C136.248 37.2392 135.144 37.1633 134.328 37.7153C133.242 35.1932 130.221 34.0822 128.064 35.4105C127.5 32.6917 125.175 30.6043 122.745 30.6388C120.318 30.6734 118.032 32.8263 117.528 35.5554C117.447 35.9902 117.396 36.4663 117.123 36.7837C116.685 37.2978 115.953 37.1253 115.326 37.0701C113.358 36.8941 111.381 38.4813 110.847 40.6653L137.931 40.5514C138.168 39.4956 137.76 38.5537 137.004 37.8982V37.8947Z" fill="#E0E0E0"/>
<path id="Vector_2" d="M38.6911 137.017C37.9351 136.361 36.8311 136.285 36.0151 136.837C34.9291 134.315 31.9081 133.204 29.7511 134.533C29.1871 131.814 26.8621 129.726 24.4321 129.761C22.0021 129.795 19.7191 131.948 19.2151 134.677C19.1341 135.112 19.0831 135.588 18.8101 135.906C18.3721 136.42 17.6401 136.247 17.0131 136.192C15.0451 136.016 13.0681 137.603 12.5341 139.787L39.6181 139.673C39.8551 138.618 39.4471 137.676 38.6911 137.02V137.017Z" fill="#E0E0E0"/>
<path id="Vector_3" d="M80.5079 126.235C80.1299 125.907 79.5779 125.869 79.1699 126.145C78.6269 124.886 77.1149 124.327 76.0379 124.993C75.7559 123.633 74.5919 122.591 73.3799 122.605C72.1649 122.622 71.0249 123.699 70.7699 125.065C70.7309 125.283 70.7039 125.521 70.5689 125.679C70.3499 125.938 69.9839 125.852 69.6719 125.821C68.6879 125.731 67.6979 126.528 67.4309 127.618L80.9729 127.563C81.0929 127.035 80.8859 126.563 80.5109 126.235H80.5079Z" fill="#E0E0E0"/>
<path id="Vector_4" d="M33.651 102.984C33.273 102.656 32.721 102.618 32.313 102.894C31.77 101.635 30.258 101.076 29.181 101.741C28.899 100.382 27.735 99.3401 26.523 99.3539C25.308 99.3711 24.168 100.448 23.913 101.814C23.874 102.031 23.847 102.269 23.712 102.428C23.493 102.687 23.127 102.601 22.815 102.57C21.831 102.48 20.841 103.277 20.574 104.367L34.116 104.312C34.236 103.784 34.029 103.311 33.654 102.984H33.651Z" fill="#F0F0F0"/>
<path id="Vector_5" d="M138.39 83.9278C138.012 83.6001 137.46 83.5621 137.052 83.8381C136.509 82.5788 134.997 82.0198 133.92 82.6857C133.638 81.3263 132.474 80.2844 131.262 80.2982C130.047 80.3154 128.907 81.3919 128.652 82.7582C128.613 82.9756 128.586 83.2136 128.451 83.3723C128.232 83.6311 127.866 83.5449 127.554 83.5138C126.57 83.4241 125.58 84.2211 125.313 85.3114L138.855 85.2562C138.975 84.7283 138.768 84.2556 138.393 83.9278H138.39Z" fill="#F0F0F0"/>
<path id="Vector_6" d="M96.846 18.8321C96.468 18.5043 95.916 18.4663 95.508 18.7424C94.965 17.483 93.453 16.9241 92.376 17.59C92.094 16.2306 90.93 15.1886 89.718 15.2024C88.503 15.2197 87.363 16.2961 87.108 17.6624C87.069 17.8798 87.042 18.1179 86.907 18.2766C86.688 18.5353 86.322 18.4491 86.01 18.418C85.026 18.3283 84.036 19.1253 83.769 20.2156L97.311 20.1604C97.431 19.6325 97.224 19.1598 96.849 18.8321H96.846Z" fill="#F0F0F0"/>
<path id="Vector_7" d="M39.186 44.9435C38.808 44.6157 38.256 44.5777 37.848 44.8537C37.305 43.5944 35.793 43.0355 34.716 43.7014C34.434 42.342 33.27 41.3 32.058 41.3138C30.843 41.331 29.703 42.4075 29.448 43.7738C29.409 43.9912 29.382 44.2293 29.247 44.388C29.028 44.6467 28.662 44.5605 28.35 44.5294C27.366 44.4397 26.376 45.2367 26.109 46.327L39.651 46.2718C39.771 45.7439 39.564 45.2712 39.189 44.9435H39.186Z" fill="#F0F0F0"/>
<path id="Vector_8" d="M127.47 8.28812C127.092 7.96035 126.54 7.92239 126.132 8.19841C125.589 6.93907 124.077 6.38013 123 7.04603C122.718 5.68663 121.554 4.64466 120.342 4.65846C119.127 4.67571 117.987 5.75219 117.732 7.11849C117.693 7.33585 117.666 7.57392 117.531 7.73263C117.312 7.9914 116.946 7.90514 116.634 7.87409C115.65 7.78438 114.66 8.58139 114.393 9.67167L127.935 9.61646C128.055 9.08857 127.848 8.61589 127.473 8.28812H127.47Z" fill="#F0F0F0"/>
<g id="Group">
<g id="Group_2">
<g id="Group_3">
<path id="Vector_9" d="M133.176 113.614H78.9509C77.9819 113.614 77.1929 112.706 77.1929 111.592V20.7538C77.1929 19.6394 77.9819 18.732 78.9509 18.732H133.176C134.145 18.732 134.934 19.6394 134.934 20.7538V111.592C134.934 112.706 134.145 113.614 133.176 113.614ZM78.9509 18.8183C78.0239 18.8183 77.2679 19.6877 77.2679 20.7538V111.592C77.2679 112.658 78.0239 113.527 78.9509 113.527H133.176C134.103 113.527 134.859 112.658 134.859 111.592V20.7538C134.859 19.6877 134.103 18.8183 133.176 18.8183H78.9509Z" fill="#E0E0E0"/>
<path id="Vector_10" d="M70.647 113.614H16.425C15.456 113.614 14.667 112.706 14.667 111.592V20.7538C14.667 19.6394 15.456 18.732 16.425 18.732H70.647C71.616 18.732 72.405 19.6394 72.405 20.7538V111.592C72.405 112.706 71.616 113.614 70.647 113.614ZM16.425 18.8183C15.498 18.8183 14.742 19.6877 14.742 20.7538V111.592C14.742 112.658 15.498 113.527 16.425 113.527H70.647C71.574 113.527 72.33 112.658 72.33 111.592V20.7538C72.33 19.6877 71.574 18.8183 70.647 18.8183H16.425Z" fill="#E0E0E0"/>
</g>
<path id="Vector_11" d="M150 134.684H0V134.771H150V134.684Z" fill="#E0E0E0"/>
</g>
<path id="Vector_12" d="M20.319 139.604H15.501V139.691H20.319V139.604Z" fill="#E0E0E0"/>
<path id="Vector_13" d="M67.164 138.669H51.105V138.756H67.164V138.669Z" fill="#E0E0E0"/>
<path id="Vector_14" d="M31.494 142.81H20.619V142.896H31.494V142.81Z" fill="#E0E0E0"/>
<path id="Vector_15" d="M126.462 138.625H113.505V138.711H126.462V138.625Z" fill="#E0E0E0"/>
<path id="Vector_16" d="M131.034 138.625H129.135V138.711H131.034V138.625Z" fill="#E0E0E0"/>
<path id="Vector_17" d="M111.03 140.774H94.863V140.86H111.03V140.774Z" fill="#E0E0E0"/>
</g>
<g id="Group_4">
<path id="Vector_18" d="M32.787 18.0557C32.094 16.7066 31.317 15.368 30.213 14.4467C28.566 13.0701 26.43 12.8113 24.411 12.525C20.019 11.9074 15.66 10.9585 11.373 9.6923C10.542 9.44733 9.87005 10.479 10.302 11.3312C10.782 12.28 11.316 13.1874 11.964 13.9913C13.125 15.4335 14.721 16.5272 16.428 16.5341C15.822 16.6894 15.18 16.8654 14.802 17.4968C14.61 17.8176 14.559 18.2317 14.709 18.5801C14.958 19.1563 15.573 19.2012 16.098 19.1943L19.203 19.1563C18.456 19.4944 18.072 20.5778 18.315 21.4576C18.558 22.3374 19.335 22.9516 20.136 23.0068C20.841 23.0551 21.543 22.7135 22.062 22.158C21.714 22.6963 21.786 23.5623 22.2 24.066C22.683 24.6526 23.481 24.7802 24.156 24.5629C24.831 24.3455 25.404 23.8245 25.908 23.2656C26.319 24.0281 27.108 24.5008 27.888 24.4524C28.668 24.4041 29.406 23.8349 29.742 23.024C30.237 24.342 31.911 24.8251 32.889 23.928C33.702 25.0735 34.515 26.2224 35.328 27.3679L35.613 24.7009C34.824 22.403 33.879 20.181 32.787 18.0557Z" fill="#EBEBEB"/>
<path id="Vector_19" d="M57.447 13.629C57.96 12.1765 58.557 10.7205 59.529 9.61985C60.981 7.97754 63.06 7.35649 65.022 6.732C69.288 5.3726 73.476 3.69233 77.553 1.70844C78.345 1.32546 79.14 2.22943 78.825 3.14719C78.471 4.16847 78.06 5.15524 77.523 6.06265C76.56 7.68427 75.123 9.04021 73.437 9.33693C74.058 9.38869 74.715 9.45424 75.171 10.0132C75.402 10.2961 75.507 10.6998 75.402 11.069C75.231 11.6831 74.628 11.828 74.109 11.9108C73.083 12.073 72.057 12.2386 71.034 12.4008C71.817 12.6112 72.333 13.6118 72.207 14.5226C72.081 15.4335 71.391 16.1719 70.605 16.3651C69.912 16.5341 69.177 16.3133 68.589 15.8544C69 16.3271 69.045 17.1966 68.697 17.7659C68.295 18.4283 67.524 18.6905 66.828 18.587C66.132 18.4835 65.499 18.0695 64.929 17.6037C64.62 18.4283 63.9 19.0287 63.123 19.1149C62.346 19.1977 61.542 18.763 61.104 18.0177C60.783 19.4082 59.19 20.1673 58.107 19.4496C57.45 20.7227 56.793 21.9959 56.136 23.269L55.509 20.6813C55.992 18.2765 56.64 15.9165 57.447 13.629Z" fill="#EBEBEB"/>
<path id="Vector_20" d="M56.6396 24.1784C57.7348 16.692 53.3456 9.6021 46.8362 8.3426C40.3268 7.08309 34.1621 12.131 33.0669 19.6173C31.9718 27.1037 36.3609 34.1936 42.8703 35.4531C49.3798 36.7127 55.5445 31.6648 56.6396 24.1784Z" fill="#E0E0E0"/>
<path id="Vector_21" d="M57.0419 20.2552C57.7273 12.7046 52.9608 5.94468 46.3956 5.15641C39.8303 4.36815 33.9525 9.85006 33.2671 17.4006C32.5817 24.9512 37.3483 31.7111 43.9135 32.4994C50.4787 33.2876 56.3565 27.8057 57.0419 20.2552Z" fill="#EBEBEB"/>
<path id="Vector_22" d="M52.9154 27.7513C57.2022 22.8211 57.2022 14.8278 52.9154 9.89763C48.6286 4.96748 41.6783 4.96748 37.3915 9.89763C33.1048 14.8278 33.1048 22.8211 37.3915 27.7513C41.6783 32.6814 48.6286 32.6814 52.9154 27.7513Z" fill="#FAFAFA"/>
<g id="Group_5">
<path id="Vector_23" d="M43.71 7.69806L43.866 9.19547L43.623 9.22997L43.491 7.96718L43.215 8.00513L43.191 7.77051L43.707 7.69806H43.71Z" fill="#E0E0E0"/>
<path id="Vector_24" d="M45.0451 8.79532L45.0691 9.02994L44.1091 9.16105L44.0911 8.97474L44.5501 8.33989C44.6011 8.26743 44.6341 8.20533 44.6521 8.15703C44.6671 8.10527 44.6731 8.05697 44.6671 8.01212C44.6611 7.94311 44.6341 7.89136 44.5891 7.86031C44.5441 7.82925 44.4811 7.8189 44.4031 7.82925C44.2711 7.84651 44.1751 7.91551 44.1151 8.02937L43.9291 7.90171C43.9711 7.81545 44.0341 7.74645 44.1151 7.69124C44.1961 7.63604 44.2921 7.60154 44.3971 7.58774C44.5381 7.56704 44.6551 7.58774 44.7481 7.65674C44.8411 7.7223 44.8921 7.82235 44.9071 7.95346C44.9161 8.03627 44.9071 8.11217 44.8861 8.18808C44.8651 8.26399 44.8141 8.35369 44.7421 8.4572L44.4331 8.88503L45.0451 8.79877V8.79532Z" fill="#E0E0E0"/>
</g>
<path id="Vector_25" d="M46.3202 29.0102C46.3922 29.0379 46.4522 29.0862 46.4972 29.1483C46.5422 29.2138 46.5692 29.2897 46.5812 29.3829C46.5902 29.4795 46.5812 29.5692 46.5452 29.6485C46.5092 29.7279 46.4582 29.7935 46.3922 29.8418C46.3232 29.8901 46.2452 29.9211 46.1582 29.9349C45.9812 29.9591 45.8342 29.9142 45.7232 29.8004C45.6122 29.6865 45.5432 29.5071 45.5162 29.269C45.4982 29.1 45.5102 28.955 45.5522 28.8274C45.5942 28.6997 45.6572 28.5997 45.7472 28.5238C45.8372 28.4479 45.9452 28.403 46.0712 28.3858C46.1372 28.3754 46.2002 28.3754 46.2632 28.3858C46.3232 28.3927 46.3772 28.4099 46.4252 28.4375L46.3592 28.6583C46.2902 28.6204 46.2062 28.6066 46.1042 28.6204C45.9782 28.6376 45.8852 28.6963 45.8252 28.7929C45.7652 28.8895 45.7412 29.024 45.7592 29.1897C45.7922 29.1345 45.8372 29.0896 45.8942 29.0551C45.9512 29.0206 46.0172 28.9999 46.0922 28.9861C46.1792 28.9757 46.2572 28.9826 46.3292 29.0102H46.3202ZM46.2962 29.6244C46.3382 29.5726 46.3562 29.5071 46.3472 29.4312C46.3382 29.3518 46.3082 29.2932 46.2572 29.2552C46.2062 29.2173 46.1402 29.2035 46.0592 29.2138C45.9812 29.2242 45.9212 29.2587 45.8762 29.3139C45.8312 29.3691 45.8132 29.4346 45.8222 29.5071C45.8312 29.5795 45.8612 29.6382 45.9122 29.6796C45.9662 29.721 46.0322 29.7348 46.1162 29.7245C46.1912 29.7141 46.2512 29.683 46.2932 29.6278L46.2962 29.6244Z" fill="#E0E0E0"/>
<path id="Vector_26" d="M48.7651 8.83667L48.9211 10.3341L48.6781 10.3686L48.5461 9.10579L48.2701 9.14374L48.2461 8.90912L48.7621 8.83667H48.7651Z" fill="#E0E0E0"/>
<path id="Vector_27" d="M50.7631 26.9022C50.8591 26.9712 50.9161 27.0781 50.9311 27.2196C50.9401 27.3093 50.9311 27.3921 50.8981 27.4714C50.8681 27.5508 50.8171 27.6164 50.7421 27.6681C50.6701 27.7233 50.5771 27.7544 50.4631 27.7716C50.3701 27.7854 50.2801 27.782 50.1901 27.7647C50.1001 27.7475 50.0221 27.713 49.9561 27.6681L50.0371 27.4369C50.0911 27.4749 50.1511 27.5025 50.2231 27.5198C50.2951 27.537 50.3641 27.5405 50.4361 27.5301C50.5201 27.5198 50.5861 27.4887 50.6311 27.4404C50.6761 27.3921 50.6941 27.3334 50.6881 27.261C50.6791 27.1851 50.6491 27.1299 50.5921 27.0988C50.5351 27.0678 50.4421 27.0609 50.3161 27.0781L50.0011 27.123L49.9831 26.2984L50.7481 26.1914L50.7721 26.426L50.2141 26.5019L50.2231 26.8504L50.3461 26.8332C50.5291 26.809 50.6701 26.8332 50.7661 26.8987L50.7631 26.9022Z" fill="#E0E0E0"/>
<g id="Group_6">
<path id="Vector_28" d="M39.5219 10.1167L39.6779 11.6141L39.4349 11.6486L39.3029 10.3858L39.0269 10.4238L39.0029 10.1892L39.5189 10.1167H39.5219Z" fill="#E0E0E0"/>
<path id="Vector_29" d="M40.2299 10.0167L40.3859 11.5141L40.1429 11.5486L40.0109 10.2858L39.7349 10.3237L39.7109 10.0891L40.2269 10.0167H40.2299Z" fill="#E0E0E0"/>
</g>
<g id="Group_7">
<path id="Vector_30" d="M41.34 27.4922L41.496 28.9896L41.253 29.0241L41.121 27.7613L40.845 27.7993L40.821 27.5646L41.337 27.4922H41.34Z" fill="#E0E0E0"/>
<path id="Vector_31" d="M42.0481 27.3956L42.2041 28.893L41.9611 28.9275L41.8291 27.6647L41.5531 27.7027L41.5291 27.4681L42.0451 27.3956H42.0481Z" fill="#E0E0E0"/>
</g>
<path id="Vector_32" d="M52.518 12.9011L52.542 13.1357L51.582 13.2668L51.564 13.0805L52.023 12.4456C52.074 12.3732 52.107 12.3111 52.122 12.2628C52.137 12.211 52.143 12.1627 52.137 12.1179C52.131 12.0489 52.104 11.9971 52.059 11.9661C52.014 11.935 51.951 11.9246 51.873 11.935C51.741 11.9522 51.645 12.0213 51.585 12.1351L51.399 12.0075C51.441 11.9212 51.504 11.8522 51.585 11.797C51.666 11.7418 51.762 11.7073 51.867 11.69C52.008 11.6693 52.125 11.69 52.218 11.759C52.311 11.8246 52.362 11.9246 52.377 12.0558C52.386 12.1351 52.377 12.2145 52.356 12.2904C52.335 12.3663 52.284 12.456 52.209 12.5595L51.9 12.9873L52.512 12.9011H52.518Z" fill="#E0E0E0"/>
<path id="Vector_33" d="M53.8471 23.0965L53.6161 23.1276L53.6521 23.4691L53.4181 23.5002L53.3821 23.1586L52.6681 23.2587L52.6471 23.0655L53.1871 22.0131L53.4451 21.9786L52.9381 22.9827L53.3641 22.924L53.3311 22.6238L53.5591 22.5928L53.5921 22.893L53.8231 22.8619L53.8471 23.0965Z" fill="#E0E0E0"/>
<g id="Group_8">
<path id="Vector_34" d="M36.9361 13.7775L37.0921 15.2749L36.8491 15.3094L36.7171 14.0466L36.4411 14.0845L36.4171 13.8499L36.9331 13.7775H36.9361Z" fill="#E0E0E0"/>
<path id="Vector_35" d="M37.6082 15.1334C37.5212 15.0851 37.4462 15.0057 37.3862 14.8953C37.3262 14.7849 37.2902 14.6503 37.2722 14.4916C37.2542 14.3329 37.2662 14.1915 37.2992 14.0672C37.3352 13.9465 37.3892 13.8464 37.4642 13.7774C37.5392 13.705 37.6292 13.6636 37.7342 13.6463C37.8392 13.6325 37.9352 13.6463 38.0222 13.6981C38.1122 13.7464 38.1842 13.8257 38.2442 13.9361C38.3042 14.0465 38.3402 14.1811 38.3582 14.3398C38.3762 14.4985 38.3672 14.64 38.3312 14.7642C38.2952 14.885 38.2412 14.985 38.1632 15.054C38.0882 15.1265 37.9982 15.1679 37.8932 15.1851C37.7882 15.1989 37.6922 15.1851 37.6052 15.1334H37.6082ZM38.0762 14.7814C38.1212 14.6848 38.1332 14.5503 38.1152 14.3743C38.0972 14.1984 38.0552 14.0707 37.9922 13.9879C37.9292 13.9085 37.8512 13.874 37.7582 13.8844C37.6652 13.8982 37.5992 13.9499 37.5542 14.0465C37.5092 14.1432 37.4972 14.2777 37.5152 14.4537C37.5332 14.6296 37.5752 14.7573 37.6382 14.8367C37.7012 14.916 37.7792 14.9505 37.8692 14.9402C37.9622 14.9264 38.0312 14.8746 38.0762 14.778V14.7814Z" fill="#E0E0E0"/>
</g>
<path id="Vector_36" d="M38.6581 24.8699C38.7001 24.9251 38.7271 24.9941 38.7361 25.0735C38.7451 25.1632 38.7331 25.246 38.6941 25.3219C38.6581 25.3978 38.6011 25.4565 38.5231 25.5048C38.4451 25.5531 38.3551 25.5841 38.2471 25.5979C38.1421 25.6117 38.0461 25.6083 37.9621 25.5807C37.8781 25.5565 37.8121 25.5117 37.7611 25.4496C37.7101 25.3875 37.6801 25.3116 37.6711 25.2184C37.6621 25.1356 37.6711 25.0631 37.7041 24.9976C37.7341 24.932 37.7791 24.8768 37.8421 24.832C37.7881 24.8078 37.7431 24.7699 37.7101 24.7181C37.6771 24.6698 37.6561 24.6077 37.6501 24.5387C37.6411 24.4559 37.6531 24.38 37.6861 24.311C37.7191 24.242 37.7701 24.1868 37.8421 24.1419C37.9111 24.0971 37.9951 24.0695 38.0881 24.0557C38.1841 24.0419 38.2711 24.0488 38.3491 24.0729C38.4271 24.0971 38.4871 24.1385 38.5351 24.1937C38.5831 24.2523 38.6101 24.3213 38.6191 24.4042C38.6251 24.4732 38.6191 24.5353 38.5951 24.5939C38.5711 24.6491 38.5351 24.7009 38.4871 24.7423C38.5591 24.7699 38.6161 24.8078 38.6581 24.863V24.8699ZM37.9381 24.3593C37.8991 24.4007 37.8811 24.4559 37.8871 24.5249C37.8931 24.5905 37.9201 24.6353 37.9681 24.6698C38.0161 24.7009 38.0791 24.7112 38.1541 24.7009C38.2321 24.6905 38.2891 24.6629 38.3311 24.6181C38.3731 24.5732 38.3881 24.518 38.3821 24.4559C38.3761 24.3869 38.3461 24.3386 38.2981 24.3075C38.2501 24.2765 38.1871 24.2661 38.1121 24.2765C38.0371 24.2868 37.9801 24.3144 37.9381 24.3558V24.3593ZM38.4331 25.2874C38.4811 25.2391 38.4991 25.1736 38.4931 25.1011C38.4841 25.0286 38.4541 24.9734 38.3971 24.9355C38.3401 24.901 38.2681 24.8872 38.1781 24.901C38.0881 24.9148 38.0221 24.9458 37.9741 24.9941C37.9291 25.0424 37.9081 25.1046 37.9171 25.1805C37.9261 25.2564 37.9561 25.3116 38.0131 25.3461C38.0671 25.3806 38.1421 25.3944 38.2291 25.3806C38.3191 25.3668 38.3851 25.3357 38.4331 25.2874Z" fill="#E0E0E0"/>
<path id="Vector_37" d="M54.147 17.4416C54.219 17.5106 54.261 17.6003 54.273 17.7176C54.282 17.8039 54.273 17.8867 54.24 17.9626C54.21 18.0385 54.156 18.1041 54.084 18.1558C54.012 18.2076 53.919 18.2421 53.808 18.2593C53.715 18.2731 53.625 18.2697 53.535 18.2524C53.445 18.2317 53.367 18.2007 53.301 18.1558L53.382 17.9246C53.433 17.9626 53.496 17.9937 53.565 18.0109C53.634 18.0282 53.706 18.0316 53.778 18.0213C53.865 18.0109 53.928 17.9799 53.973 17.9315C54.018 17.8832 54.036 17.8246 54.03 17.7556C54.024 17.6866 53.994 17.6348 53.943 17.6003C53.892 17.5693 53.82 17.5589 53.724 17.5693L53.604 17.5865L53.583 17.3968L53.835 16.9517L53.244 17.0345L53.22 16.7999L54.108 16.6757L54.126 16.862L53.856 17.3381C53.979 17.3381 54.075 17.3726 54.147 17.4416Z" fill="#E0E0E0"/>
<path id="Vector_38" d="M36.6121 19.2737C36.7231 19.3875 36.7921 19.5669 36.8161 19.805C36.8341 19.9741 36.8221 20.119 36.7801 20.2466C36.7381 20.3743 36.6751 20.4743 36.5851 20.5502C36.4951 20.6261 36.3871 20.671 36.2611 20.6883C36.1951 20.6986 36.1291 20.6986 36.0691 20.6883C36.0091 20.6813 35.9551 20.6641 35.9071 20.6365L35.9731 20.4157C36.0421 20.4536 36.1291 20.4674 36.2281 20.4536C36.3541 20.4364 36.4471 20.3777 36.5071 20.2811C36.5701 20.1845 36.5911 20.05 36.5731 19.8843C36.5401 19.9395 36.4951 19.9844 36.4381 20.0189C36.3811 20.0534 36.3151 20.0776 36.2401 20.0879C36.1561 20.0983 36.0751 20.0879 36.0031 20.0638C35.9311 20.0362 35.8711 19.9879 35.8261 19.9257C35.7811 19.8602 35.7511 19.7843 35.7421 19.6911C35.7331 19.5945 35.7421 19.5048 35.7781 19.4255C35.8111 19.3461 35.8651 19.2806 35.9311 19.2322C36.0001 19.1839 36.0781 19.1529 36.1651 19.1391C36.3421 19.1149 36.4891 19.1598 36.6001 19.2737H36.6121ZM36.4531 19.7636C36.4981 19.7084 36.5161 19.6428 36.5071 19.5704C36.5011 19.4979 36.4681 19.4393 36.4171 19.4013C36.3631 19.3599 36.2971 19.3461 36.2101 19.3565C36.1351 19.3668 36.0751 19.3979 36.0331 19.4496C35.9911 19.5014 35.9731 19.5669 35.9821 19.6428C35.9911 19.7222 36.0211 19.7808 36.0721 19.8188C36.1231 19.8567 36.1891 19.874 36.2701 19.8602C36.3481 19.8498 36.4081 19.8153 36.4531 19.7601V19.7636Z" fill="#E0E0E0"/>
<path id="Vector_39" d="M44.925 18.8838L44.313 10.7205L44.649 10.6757L45.897 18.7492L44.925 18.8838Z" fill="#E0E0E0"/>
<path id="Vector_40" d="M45.0451 19.4221L41.3461 16.096L41.5411 15.7786L45.6061 18.5009L45.0451 19.4221Z" fill="#E0E0E0"/>
<path id="Vector_41" d="M43.38 20.8643L50.565 14.7573L43.572 21.1127L43.38 20.8643Z" fill="#E6E6E6"/>
<path id="Vector_42" d="M46.434 18.6768C46.503 19.3255 46.098 19.9155 45.534 19.9948C44.97 20.0742 44.457 19.6084 44.388 18.9597C44.319 18.3111 44.724 17.7211 45.288 17.6417C45.852 17.5624 46.365 18.0282 46.434 18.6768Z" fill="#E0E0E0"/>
<path id="Vector_43" d="M38.295 31.8636C38.295 31.8636 36.822 36.3524 37.476 36.3248C38.13 36.2972 40.056 32.9884 40.056 32.9884C40.056 32.9884 39.66 31.5393 38.295 31.8636Z" fill="#EBEBEB"/>
<path id="Vector_44" d="M54.39 29.2208C54.39 29.2208 56.748 33.1816 56.106 33.33C55.467 33.4818 52.911 30.7941 52.911 30.7941C52.911 30.7941 52.995 29.2794 54.39 29.2208Z" fill="#EBEBEB"/>
<path id="Vector_45" d="M31.6201 13.4876C31.6801 13.3806 38.8801 3.84761 38.8801 3.84761C38.8801 3.84761 35.4631 1.19437 32.2681 5.84185C29.0761 10.4893 31.6171 13.4876 31.6171 13.4876H31.6201Z" fill="#F0F0F0"/>
<path id="Vector_46" d="M38.8801 3.8511C39.2491 4.21338 37.8271 6.6044 35.8381 9.26799C33.8491 11.9316 31.9381 13.7982 31.5721 13.4359C31.2031 13.0736 32.5171 10.617 34.5061 7.95345C36.4951 5.28986 38.5141 3.48883 38.8831 3.8511H38.8801Z" fill="#E0E0E0"/>
<path id="Vector_47" d="M33.8017 5.87183L32.7312 7.30676L35.921 10.4544L36.9915 9.01946L33.8017 5.87183Z" fill="#F0F0F0"/>
<path id="Vector_48" d="M33.7951 5.80045C33.8731 6.54225 33.4141 7.2116 32.7691 7.30131C32.1241 7.39101 31.5421 6.86313 31.4641 6.12132C31.3861 5.37952 31.8451 4.71017 32.4901 4.62047C33.1351 4.53076 33.7171 5.05865 33.7951 5.80045Z" fill="#F0F0F0"/>
<g id="Group_9" opacity="0.4">
<path id="Vector_49" d="M32.277 5.96951L31.692 6.77342C31.614 6.91833 30.267 9.78894 31.881 12.0937C32.31 11.2208 32.832 10.3513 33.417 9.48186C32.646 8.92982 31.719 7.83955 32.277 5.96606V5.96951Z" fill="white"/>
</g>
<path id="Vector_50" d="M34.035 8.59515L35.112 7.16675L35.418 7.46692L34.413 8.96777L34.035 8.59515Z" fill="#E0E0E0"/>
<path id="Vector_51" d="M31.6921 6.7735L33.1531 4.75165L33.0121 4.6861L31.6021 6.60788L31.6921 6.7735Z" fill="#E0E0E0"/>
<g id="Group_10">
<path id="Vector_52" d="M45.9481 2.42611C46.0531 2.46061 56.0791 7.61527 56.0791 7.61527C56.0791 7.61527 57.2941 3.08165 52.5001 0.91835C47.7061 -1.24495 45.9511 2.42266 45.9511 2.42266L45.9481 2.42611Z" fill="#F0F0F0"/>
<path id="Vector_53" d="M56.0761 7.61872C55.8811 8.12936 53.4811 7.25645 50.6851 5.8453C47.8891 4.4307 45.7831 2.87118 45.9781 2.36055C46.1731 1.84991 48.5971 2.58136 51.3931 3.99596C54.1891 5.41056 56.2711 7.10808 56.0761 7.61872Z" fill="#E0E0E0"/>
<path id="Vector_54" d="M52.9187 2.61409L51.4138 1.85291L49.7217 6.27767L51.2266 7.03886L52.9187 2.61409Z" fill="#F0F0F0"/>
<path id="Vector_55" d="M52.9771 2.5883C52.3831 2.88847 51.6901 2.57795 51.4291 1.8948C51.1681 1.21165 51.4381 0.414643 52.0321 0.114471C52.6261 -0.1857 53.3191 0.124823 53.5801 0.807971C53.8411 1.49112 53.5711 2.28813 52.9771 2.5883Z" fill="#F0F0F0"/>
<g id="Group_11" opacity="0.4">
<path id="Vector_56" d="M52.3951 0.966641L51.5552 0.556063C51.4112 0.51121 48.6332 -0.133987 47.1812 2.30879C48.0302 2.52615 48.9062 2.85048 49.8002 3.24035C50.0372 2.23288 50.6732 0.894187 52.3922 0.963192L52.3951 0.966641Z" fill="white"/>
</g>
<path id="Vector_57" d="M50.7213 3.66132L52.2243 4.43417L52.0623 4.85855L50.5203 4.18575L50.7213 3.66132Z" fill="#E0E0E0"/>
<path id="Vector_58" d="M51.5552 0.556075L53.6612 1.57735L53.6762 1.40139L51.6662 0.407715L51.5552 0.556075Z" fill="#E0E0E0"/>
</g>
<path id="Vector_59" d="M35.7721 10.31C35.7721 10.31 36.5731 9.27149 36.8881 8.91611L36.7591 8.78845L35.6581 10.1962L35.7721 10.31Z" fill="#E0E0E0"/>
<path id="Vector_60" d="M18.2941 15.5302C18.2941 15.5302 25.4431 15.6509 27.0481 16.6411C28.6531 17.6314 32.1541 21.8924 32.1541 21.8924C32.1541 21.8924 27.9871 17.9143 26.4001 17.0724C24.8101 16.2306 18.2941 15.5302 18.2941 15.5302Z" fill="#E0E0E0"/>
<path id="Vector_61" d="M21.4051 17.3622C21.4051 17.3622 21.0031 19.7809 22.5991 19.4945C24.1951 19.2081 24.7561 18.3111 24.7561 18.3111C24.7561 18.3111 24.5311 20.5054 25.7341 20.3088C26.9401 20.1086 27.6901 19.1184 27.6901 19.1184C27.6901 19.1184 26.1271 21.0678 25.2421 20.7849C24.3571 20.4985 24.5671 19.0598 24.5671 19.0598C24.5671 19.0598 22.7071 20.4364 21.8131 19.7774C20.9191 19.1184 21.0391 18.7423 21.4051 17.3657V17.3622Z" fill="#E0E0E0"/>
<path id="Vector_62" d="M70.518 7.85336C70.518 7.85336 63.597 9.92351 62.244 11.3209C60.891 12.7182 58.368 17.8142 58.368 17.8142C58.368 17.8142 61.593 12.8148 62.964 11.5624C64.335 10.3099 70.518 7.84991 70.518 7.84991V7.85336Z" fill="#E0E0E0"/>
<path id="Vector_63" d="M67.8751 10.4825C67.8751 10.4825 68.7661 12.7217 67.1551 12.877C65.5471 13.0357 64.8151 12.3146 64.8151 12.3146C64.8151 12.3146 65.4871 14.3847 64.2751 14.5227C63.0631 14.6607 62.1271 13.9017 62.1271 13.9017C62.1271 13.9017 64.0501 15.3715 64.8511 14.8505C65.6521 14.333 65.1481 12.9908 65.1481 12.9908C65.1481 12.9908 67.2391 13.8223 67.9711 12.9356C68.7061 12.0489 68.5081 11.7177 67.8691 10.4825H67.8751Z" fill="#E0E0E0"/>
</g>
<g id="Group_12">
<path id="Vector_64" d="M109.5 111.002C109.635 109.908 109.722 108.78 109.467 107.714C109.089 106.123 108.015 104.898 107.013 103.718C104.835 101.151 102.804 98.4258 100.932 95.5586C100.569 95.0031 99.8039 95.2274 99.7169 95.9174C99.6179 96.6834 99.5639 97.4528 99.6119 98.2222C99.6989 99.6023 100.155 101.01 101.091 101.879C100.698 101.659 100.278 101.431 99.8279 101.586C99.5999 101.666 99.4109 101.866 99.3599 102.135C99.2759 102.58 99.5969 102.915 99.8879 103.173C100.461 103.691 101.037 104.208 101.61 104.726C101.07 104.536 100.446 104.933 100.242 105.54C100.038 106.147 100.23 106.879 100.65 107.314C101.019 107.7 101.535 107.866 102.033 107.824C101.637 107.945 101.343 108.456 101.379 108.942C101.421 109.508 101.808 109.984 102.264 110.205C102.72 110.426 103.23 110.433 103.725 110.381C103.659 111.009 103.911 111.668 104.358 112.037C104.805 112.406 105.429 112.465 105.924 112.192C105.69 113.169 106.428 114.28 107.307 114.283C107.316 115.325 107.322 116.367 107.331 117.409L108.51 116.088C108.957 114.428 109.287 112.724 109.5 111.002Z" fill="#EBEBEB"/>
<path id="Vector_65" d="M124.749 121.063C125.586 120.525 126.474 120.024 127.428 119.914C128.856 119.748 130.233 120.459 131.553 121.108C134.418 122.519 137.364 123.719 140.364 124.692C140.946 124.882 141.036 125.783 140.511 126.128C139.926 126.511 139.323 126.845 138.681 127.07C137.529 127.473 136.224 127.491 135.18 126.801C135.501 127.142 135.837 127.511 135.873 128.05C135.891 128.322 135.795 128.598 135.597 128.746C135.267 128.995 134.88 128.771 134.562 128.553C133.935 128.125 133.308 127.694 132.684 127.266C133.035 127.777 132.936 128.591 132.516 129.029C132.096 129.468 131.436 129.523 130.932 129.23C130.488 128.971 130.167 128.477 130.02 127.929C130.065 128.398 129.756 128.895 129.348 129.033C128.874 129.192 128.349 128.947 128.004 128.539C127.662 128.129 127.473 127.584 127.338 127.035C126.852 127.332 126.228 127.297 125.766 126.952C125.307 126.604 125.031 125.959 125.076 125.327C124.368 125.928 123.201 125.541 122.88 124.596C122.031 124.962 121.182 125.331 120.336 125.696L120.984 123.958C122.172 122.881 123.432 121.912 124.752 121.063H124.749Z" fill="#EBEBEB"/>
<path id="Vector_66" d="M121.28 125.222C124.153 121.018 123.52 114.932 119.864 111.627C116.209 108.323 110.917 109.052 108.044 113.256C105.171 117.459 105.805 123.546 109.46 126.85C113.115 130.154 118.407 129.425 121.28 125.222Z" fill="#E0E0E0"/>
<path id="Vector_67" d="M124.421 117.949C124.546 112.604 120.88 108.155 116.232 108.011C111.585 107.868 107.716 112.084 107.591 117.429C107.466 122.774 111.132 127.223 115.78 127.367C120.427 127.511 124.296 123.294 124.421 117.949Z" fill="#EBEBEB"/>
<path id="Vector_68" d="M118.881 125.951C122.844 124.122 124.767 118.945 123.176 114.387C121.586 109.83 117.084 107.619 113.122 109.448C109.159 111.277 107.236 116.454 108.827 121.011C110.417 125.569 114.919 127.78 118.881 125.951Z" fill="#FAFAFA"/>
<g id="Group_13">
<path id="Vector_69" d="M119.469 110.843L118.983 111.744L118.836 111.64L119.247 110.878L119.082 110.76L119.157 110.619L119.469 110.84V110.843Z" fill="#E0E0E0"/>
<path id="Vector_70" d="M119.784 112.123L119.706 112.265L119.127 111.851L119.187 111.74L119.682 111.623C119.739 111.609 119.781 111.592 119.808 111.571C119.835 111.55 119.856 111.526 119.874 111.499C119.898 111.457 119.901 111.416 119.889 111.375C119.877 111.333 119.847 111.299 119.799 111.264C119.718 111.205 119.64 111.195 119.565 111.226L119.511 111.064C119.568 111.04 119.628 111.033 119.694 111.043C119.76 111.054 119.826 111.081 119.889 111.13C119.973 111.192 120.03 111.261 120.057 111.343C120.081 111.426 120.075 111.509 120.03 111.588C120.003 111.637 119.97 111.678 119.928 111.706C119.886 111.737 119.826 111.761 119.745 111.778L119.412 111.858L119.781 112.12L119.784 112.123Z" fill="#E0E0E0"/>
</g>
<path id="Vector_71" d="M112.743 123.878C112.773 123.93 112.785 123.985 112.788 124.044C112.788 124.102 112.773 124.158 112.743 124.213C112.713 124.271 112.671 124.313 112.623 124.34C112.575 124.368 112.521 124.375 112.464 124.368C112.407 124.361 112.353 124.337 112.299 124.299C112.191 124.223 112.128 124.123 112.11 124.006C112.092 123.885 112.122 123.754 112.2 123.609C112.254 123.509 112.317 123.433 112.389 123.385C112.461 123.336 112.533 123.312 112.611 123.316C112.689 123.319 112.767 123.35 112.842 123.402C112.881 123.43 112.917 123.464 112.947 123.499C112.977 123.533 113.001 123.571 113.016 123.609L112.893 123.699C112.869 123.64 112.827 123.592 112.767 123.547C112.692 123.492 112.617 123.478 112.548 123.499C112.476 123.523 112.413 123.585 112.359 123.685C112.398 123.671 112.44 123.671 112.485 123.678C112.53 123.688 112.575 123.709 112.62 123.74C112.671 123.778 112.713 123.819 112.74 123.875L112.743 123.878ZM112.494 124.202C112.536 124.196 112.572 124.168 112.596 124.123C112.623 124.075 112.626 124.03 112.614 123.982C112.599 123.933 112.569 123.892 112.521 123.857C112.473 123.823 112.428 123.809 112.383 123.819C112.338 123.826 112.302 123.854 112.278 123.899C112.254 123.944 112.248 123.989 112.263 124.037C112.275 124.085 112.308 124.13 112.359 124.165C112.404 124.196 112.449 124.209 112.494 124.202Z" fill="#E0E0E0"/>
<path id="Vector_72" d="M121.812 114.031L121.326 114.932L121.179 114.828L121.59 114.066L121.425 113.948L121.5 113.807L121.812 114.028V114.031Z" fill="#E0E0E0"/>
<path id="Vector_73" d="M115.992 124.972C116.019 125.058 116.01 125.144 115.962 125.231C115.932 125.286 115.896 125.324 115.848 125.351C115.8 125.379 115.749 125.389 115.686 125.382C115.626 125.376 115.563 125.348 115.494 125.3C115.437 125.258 115.389 125.213 115.347 125.155C115.305 125.1 115.275 125.041 115.257 124.982L115.389 124.896C115.404 124.944 115.428 124.989 115.458 125.037C115.491 125.082 115.527 125.12 115.572 125.151C115.623 125.189 115.671 125.207 115.713 125.2C115.755 125.2 115.788 125.172 115.812 125.131C115.836 125.086 115.839 125.037 115.821 124.993C115.803 124.948 115.755 124.896 115.677 124.841L115.488 124.706L115.794 124.244L116.253 124.572L116.178 124.713L115.842 124.472L115.713 124.668L115.788 124.723C115.899 124.803 115.968 124.886 115.992 124.972Z" fill="#E0E0E0"/>
<g id="Group_14">
<path id="Vector_74" d="M116.241 110.053L115.755 110.954L115.611 110.85L116.022 110.088L115.857 109.97L115.932 109.829L116.244 110.05L116.241 110.053Z" fill="#E0E0E0"/>
<path id="Vector_75" d="M116.67 110.357L116.184 111.257L116.037 111.154L116.448 110.391L116.283 110.274L116.358 110.132L116.67 110.353V110.357Z" fill="#E0E0E0"/>
</g>
<g id="Group_15">
<path id="Vector_76" d="M110.589 120.525L110.103 121.425L109.956 121.322L110.367 120.559L110.202 120.442L110.277 120.3L110.589 120.521V120.525Z" fill="#E0E0E0"/>
<path id="Vector_77" d="M111.015 120.828L110.529 121.729L110.382 121.625L110.793 120.863L110.628 120.745L110.703 120.604L111.015 120.825V120.828Z" fill="#E0E0E0"/>
</g>
<path id="Vector_78" d="M122.319 118.165L122.244 118.306L121.665 117.892L121.725 117.782L122.22 117.664C122.277 117.65 122.319 117.633 122.346 117.613C122.373 117.592 122.394 117.568 122.412 117.54C122.436 117.499 122.439 117.457 122.427 117.416C122.415 117.374 122.385 117.34 122.337 117.305C122.256 117.247 122.178 117.236 122.103 117.267L122.049 117.105C122.106 117.081 122.166 117.074 122.232 117.085C122.298 117.095 122.364 117.123 122.427 117.171C122.511 117.233 122.568 117.302 122.592 117.385C122.619 117.468 122.61 117.547 122.565 117.63C122.538 117.678 122.505 117.719 122.463 117.747C122.421 117.778 122.361 117.802 122.28 117.82L121.947 117.899L122.316 118.165H122.319Z" fill="#E0E0E0"/>
<path id="Vector_79" d="M119.145 124.441L119.007 124.341L118.896 124.544L118.755 124.444L118.866 124.24L118.437 123.933L118.5 123.816L119.199 123.512L119.355 123.623L118.692 123.92L118.947 124.102L119.046 123.92L119.184 124.016L119.085 124.199L119.223 124.299L119.148 124.441H119.145Z" fill="#E0E0E0"/>
<g id="Group_16">
<path id="Vector_80" d="M113.421 110.753L112.935 111.654L112.788 111.55L113.199 110.788L113.034 110.671L113.109 110.529L113.421 110.75V110.753Z" fill="#E0E0E0"/>
<path id="Vector_81" d="M113.271 111.84C113.241 111.768 113.232 111.689 113.241 111.599C113.25 111.509 113.28 111.416 113.334 111.319C113.385 111.223 113.445 111.15 113.511 111.102C113.577 111.054 113.646 111.026 113.715 111.026C113.784 111.026 113.85 111.047 113.913 111.092C113.976 111.136 114.021 111.195 114.051 111.268C114.081 111.34 114.09 111.419 114.081 111.509C114.072 111.599 114.042 111.692 113.988 111.789C113.937 111.885 113.877 111.958 113.811 112.006C113.745 112.058 113.676 112.082 113.607 112.082C113.538 112.082 113.472 112.061 113.409 112.016C113.346 111.971 113.301 111.913 113.271 111.84ZM113.664 111.885C113.724 111.854 113.784 111.789 113.841 111.682C113.898 111.575 113.925 111.485 113.922 111.409C113.919 111.333 113.889 111.274 113.832 111.233C113.778 111.195 113.718 111.188 113.658 111.219C113.598 111.25 113.538 111.316 113.481 111.423C113.424 111.53 113.397 111.62 113.4 111.695C113.403 111.771 113.433 111.83 113.487 111.868C113.544 111.909 113.601 111.913 113.664 111.882V111.885Z" fill="#E0E0E0"/>
</g>
<path id="Vector_82" d="M110.118 117.723C110.118 117.775 110.109 117.826 110.082 117.875C110.052 117.93 110.013 117.968 109.965 117.992C109.917 118.013 109.863 118.02 109.8 118.006C109.74 117.992 109.677 117.964 109.614 117.92C109.551 117.875 109.5 117.823 109.464 117.768C109.428 117.713 109.407 117.654 109.404 117.592C109.401 117.533 109.413 117.475 109.443 117.419C109.47 117.371 109.503 117.337 109.545 117.316C109.587 117.295 109.632 117.288 109.686 117.295C109.665 117.254 109.656 117.209 109.656 117.164C109.656 117.119 109.668 117.078 109.692 117.033C109.719 116.981 109.755 116.947 109.8 116.926C109.845 116.905 109.896 116.902 109.95 116.912C110.004 116.922 110.061 116.95 110.118 116.992C110.175 117.033 110.223 117.081 110.256 117.133C110.289 117.185 110.307 117.24 110.313 117.295C110.316 117.35 110.304 117.402 110.277 117.454C110.253 117.495 110.226 117.526 110.19 117.547C110.157 117.568 110.118 117.575 110.073 117.575C110.103 117.626 110.118 117.678 110.121 117.73L110.118 117.723ZM109.917 117.078C109.878 117.078 109.848 117.102 109.827 117.143C109.806 117.181 109.803 117.223 109.818 117.264C109.833 117.305 109.863 117.343 109.908 117.374C109.953 117.409 109.998 117.423 110.037 117.419C110.076 117.416 110.106 117.395 110.127 117.357C110.148 117.316 110.151 117.274 110.136 117.233C110.121 117.192 110.091 117.154 110.046 117.123C110.001 117.092 109.959 117.074 109.92 117.078H109.917ZM109.833 117.84C109.878 117.84 109.914 117.813 109.938 117.768C109.962 117.723 109.965 117.678 109.947 117.63C109.929 117.581 109.893 117.537 109.839 117.499C109.785 117.461 109.737 117.443 109.692 117.447C109.647 117.45 109.614 117.475 109.59 117.519C109.566 117.564 109.56 117.613 109.578 117.657C109.596 117.706 109.629 117.747 109.683 117.785C109.737 117.823 109.785 117.84 109.83 117.837L109.833 117.84Z" fill="#E0E0E0"/>
<path id="Vector_83" d="M121.476 121.484C121.488 121.556 121.476 121.629 121.44 121.698C121.413 121.749 121.374 121.791 121.329 121.815C121.284 121.843 121.23 121.849 121.17 121.843C121.11 121.836 121.047 121.808 120.978 121.76C120.921 121.718 120.873 121.673 120.831 121.615C120.789 121.56 120.759 121.501 120.741 121.442L120.873 121.356C120.888 121.404 120.909 121.449 120.942 121.494C120.975 121.539 121.011 121.577 121.056 121.608C121.107 121.646 121.155 121.663 121.197 121.66C121.239 121.656 121.272 121.632 121.296 121.591C121.32 121.549 121.323 121.504 121.308 121.463C121.293 121.418 121.257 121.377 121.2 121.335L121.128 121.284L121.191 121.17L121.5 121.052L121.143 120.797L121.218 120.656L121.752 121.039L121.692 121.149L121.362 121.273C121.428 121.335 121.47 121.404 121.482 121.477L121.476 121.484Z" fill="#E0E0E0"/>
<path id="Vector_84" d="M111.135 113.61C111.153 113.731 111.123 113.862 111.045 114.007C110.991 114.107 110.928 114.183 110.856 114.231C110.784 114.28 110.712 114.304 110.634 114.297C110.556 114.293 110.478 114.262 110.403 114.211C110.364 114.183 110.328 114.148 110.298 114.114C110.268 114.079 110.244 114.042 110.229 114.004L110.352 113.917C110.376 113.973 110.418 114.024 110.478 114.069C110.553 114.124 110.628 114.138 110.697 114.114C110.769 114.09 110.832 114.031 110.886 113.928C110.847 113.941 110.805 113.941 110.76 113.935C110.715 113.924 110.67 113.904 110.625 113.872C110.574 113.835 110.532 113.79 110.505 113.738C110.475 113.686 110.46 113.631 110.46 113.572C110.46 113.514 110.475 113.458 110.505 113.403C110.538 113.345 110.577 113.303 110.625 113.276C110.673 113.248 110.727 113.241 110.784 113.248C110.841 113.255 110.895 113.279 110.949 113.317C111.057 113.393 111.12 113.493 111.138 113.61H111.135ZM110.859 113.8C110.904 113.793 110.94 113.766 110.964 113.721C110.988 113.676 110.994 113.631 110.979 113.579C110.967 113.531 110.934 113.486 110.883 113.452C110.838 113.42 110.793 113.407 110.751 113.414C110.706 113.42 110.673 113.448 110.649 113.496C110.622 113.545 110.619 113.59 110.631 113.638C110.643 113.686 110.676 113.728 110.724 113.762C110.772 113.797 110.817 113.807 110.862 113.8H110.859Z" fill="#E0E0E0"/>
<path id="Vector_85" d="M115.854 117.609L118.644 112.81L118.845 112.955L116.439 118.027L115.854 117.609Z" fill="#E0E0E0"/>
<path id="Vector_86" d="M115.713 117.964L114.954 114.262L115.185 114.186L116.376 117.74L115.713 117.964Z" fill="#E0E0E0"/>
<path id="Vector_87" d="M114.246 117.913L120.534 118.196L114.258 118.144L114.246 117.913Z" fill="#E6E6E6"/>
<path id="Vector_88" d="M116.763 118.258C116.553 118.648 116.103 118.768 115.764 118.527C115.425 118.285 115.32 117.768 115.53 117.378C115.74 116.988 116.19 116.867 116.529 117.109C116.871 117.35 116.973 117.868 116.763 118.258Z" fill="#E0E0E0"/>
<path id="Vector_89" d="M107.241 121.384C107.241 121.384 104.712 123.105 105.081 123.419C105.45 123.733 107.775 122.891 107.775 122.891C107.775 122.891 108.114 121.894 107.238 121.38L107.241 121.384Z" fill="#EBEBEB"/>
<path id="Vector_90" d="M117.099 128.081C117.099 128.081 116.877 131.452 116.469 131.21C116.061 130.968 115.683 128.198 115.683 128.198C115.683 128.198 116.31 127.408 117.099 128.081Z" fill="#EBEBEB"/>
<path id="Vector_91" d="M110.607 107.904C110.682 107.876 118.29 106.282 118.29 106.282C118.29 106.282 117.426 103.094 113.892 104.029C110.358 104.967 110.607 107.9 110.607 107.9V107.904Z" fill="#F0F0F0"/>
<path id="Vector_92" d="M118.29 106.282C118.353 106.668 116.658 107.262 114.543 107.717C112.431 108.176 110.664 108.231 110.601 107.848C110.538 107.462 112.2 106.779 114.312 106.32C116.424 105.861 118.224 105.895 118.287 106.282H118.29Z" fill="#E0E0E0"/>
<path id="Vector_93" d="M114.721 104.826L113.583 105.072L114.131 108.419L115.269 108.173L114.721 104.826Z" fill="#F0F0F0"/>
<path id="Vector_94" d="M114.747 104.778C114.507 105.223 113.997 105.361 113.607 105.085C113.22 104.809 113.1 104.222 113.34 103.774C113.58 103.329 114.09 103.191 114.48 103.467C114.87 103.743 114.987 104.329 114.747 104.778Z" fill="#F0F0F0"/>
<g id="Group_17" opacity="0.4">
<path id="Vector_95" d="M113.85 104.101L113.22 104.246C113.121 104.284 111.282 105.181 111.285 107.265C111.855 107.003 112.476 106.789 113.13 106.61C112.92 105.916 112.827 104.847 113.85 104.101Z" fill="white"/>
</g>
<path id="Vector_96" d="M113.808 106.437L114.948 106.196L115.002 106.517L113.874 106.831L113.808 106.437Z" fill="#E0E0E0"/>
<path id="Vector_97" d="M113.22 104.25L114.795 103.877L114.744 103.77L113.232 104.112L113.22 104.25Z" fill="#E0E0E0"/>
<g id="Group_18">
<path id="Vector_98" d="M122.718 109.08C122.763 109.153 126.297 117.064 126.297 117.064C126.297 117.064 128.7 115.187 126.894 111.571C125.088 107.955 122.718 109.08 122.718 109.08Z" fill="#F0F0F0"/>
<path id="Vector_99" d="M126.297 117.064C125.994 117.247 125.007 115.549 124.014 113.358C123.018 111.168 122.457 109.242 122.76 109.059C123.063 108.877 124.116 110.509 125.109 112.699C126.105 114.89 126.6 116.881 126.297 117.064Z" fill="#E0E0E0"/>
<path id="Vector_100" d="M126.469 112.711L125.933 111.531L123.308 113.106L123.843 114.286L126.469 112.711Z" fill="#F0F0F0"/>
<path id="Vector_101" d="M126.519 112.73C126.078 112.596 125.817 112.075 125.934 111.568C126.051 111.061 126.504 110.76 126.945 110.895C127.386 111.029 127.647 111.55 127.53 112.058C127.413 112.565 126.96 112.865 126.519 112.73Z" fill="#F0F0F0"/>
<g id="Group_19" opacity="0.4">
<path id="Vector_102" d="M126.822 111.544L126.516 110.892C126.453 110.795 125.175 109.032 123.441 109.639C123.825 110.188 124.182 110.812 124.524 111.478C125.04 111.043 125.904 110.629 126.822 111.54V111.544Z" fill="white"/>
</g>
<path id="Vector_103" d="M124.869 112.175L125.4 113.362L125.148 113.514L124.557 112.365L124.869 112.175Z" fill="#E0E0E0"/>
<path id="Vector_104" d="M126.516 110.891L127.284 112.52L127.359 112.43L126.633 110.867L126.516 110.891Z" fill="#E0E0E0"/>
</g>
<path id="Vector_105" d="M114.108 108.259C114.108 108.259 114.945 108.093 115.254 108.059L115.233 107.924L114.09 108.138L114.111 108.259H114.108Z" fill="#E0E0E0"/>
<path id="Vector_106" d="M102.501 102.276C102.501 102.276 106.383 105.965 106.887 107.321C107.391 108.676 107.682 112.793 107.682 112.793C107.682 112.793 106.914 108.497 106.365 107.231C105.813 105.965 102.501 102.276 102.501 102.276Z" fill="#E0E0E0"/>
<path id="Vector_107" d="M103.509 104.857C103.509 104.857 102.363 105.982 103.35 106.63C104.337 107.283 104.988 107.072 104.988 107.072C104.988 107.072 104.022 108.166 104.763 108.666C105.504 109.166 106.293 109.004 106.293 109.004C106.293 109.004 104.685 109.284 104.31 108.68C103.932 108.076 104.601 107.389 104.601 107.389C104.601 107.389 103.053 107.203 102.813 106.389C102.573 105.571 102.783 105.426 103.512 104.857H103.509Z" fill="#E0E0E0"/>
<path id="Vector_108" d="M134.145 124.506C134.145 124.506 129.549 122.139 128.268 122.222C126.987 122.305 123.651 123.83 123.651 123.83C123.651 123.83 127.338 122.715 128.571 122.722C129.804 122.729 134.145 124.51 134.145 124.51V124.506Z" fill="#E0E0E0"/>
<path id="Vector_109" d="M131.685 124.613C131.685 124.613 131.316 126.293 130.374 125.565C129.429 124.837 129.303 124.071 129.303 124.071C129.303 124.071 128.88 125.552 128.163 125.01C127.446 124.472 127.221 123.581 127.221 123.581C127.221 123.581 127.716 125.362 128.355 125.483C128.994 125.603 129.231 124.613 129.231 124.613C129.231 124.613 130.062 126.128 130.806 126.014C131.55 125.9 131.568 125.617 131.691 124.613H131.685Z" fill="#E0E0E0"/>
</g>
</g>
<g id="Shadow">
<path id="Vector_110" d="M139.017 147.885C139.017 149.055 110.961 150 76.3559 150C41.7509 150 13.6949 149.051 13.6949 147.885C13.6949 146.719 41.7509 145.77 76.3559 145.77C110.961 145.77 139.017 146.719 139.017 147.885Z" fill="#F5F5F5"/>
</g>
<g id="Lines">
<g id="Group_20">
<path id="Vector_111" d="M32.208 102.031C32.169 102.031 32.13 102.014 32.1 101.98C32.043 101.91 32.043 101.804 32.1 101.735C33.816 99.8128 34.929 98.5845 36.042 97.3527C37.152 96.1244 38.265 94.8996 39.978 92.9778C40.038 92.9123 40.131 92.9123 40.191 92.9778C40.248 93.0468 40.248 93.1538 40.191 93.2228C38.478 95.1411 37.365 96.3694 36.255 97.5977C35.142 98.826 34.029 100.054 32.316 101.976C32.286 102.007 32.25 102.024 32.211 102.024L32.208 102.031Z" fill="#263238"/>
<path id="Vector_112" d="M29.901 104.395C29.862 104.395 29.823 104.377 29.793 104.343C29.736 104.274 29.736 104.167 29.793 104.098L31.188 102.535C31.248 102.469 31.341 102.469 31.401 102.535C31.458 102.604 31.458 102.711 31.401 102.78L30.006 104.343C29.976 104.374 29.94 104.391 29.901 104.391V104.395Z" fill="#263238"/>
<path id="Vector_113" d="M28.998 117.199C28.962 117.199 28.923 117.181 28.893 117.15C28.833 117.085 28.83 116.974 28.887 116.905L44.052 98.6742C44.109 98.6052 44.205 98.6017 44.265 98.6673C44.325 98.7328 44.328 98.8432 44.271 98.9122L29.106 117.143C29.076 117.178 29.037 117.195 28.998 117.195V117.199Z" fill="#263238"/>
<path id="Vector_114" d="M40.9081 112.81C40.8721 112.81 40.8331 112.796 40.8061 112.762C40.7461 112.696 40.7431 112.586 40.8001 112.517C42.0871 110.943 42.9751 109.825 43.8331 108.745C44.6911 107.665 45.5791 106.548 46.8691 104.971C46.9261 104.902 47.0221 104.898 47.0821 104.964C47.1421 105.03 47.1451 105.14 47.0881 105.209C45.8011 106.782 44.9131 107.9 44.0551 108.98C43.1971 110.06 42.3091 111.178 41.0191 112.755C40.9891 112.789 40.9501 112.81 40.9111 112.81H40.9081Z" fill="#263238"/>
<path id="Vector_115" d="M47.8081 104.205C47.7721 104.205 47.7361 104.191 47.7091 104.16C47.6461 104.098 47.6401 103.988 47.6971 103.915L48.8911 102.369C48.9451 102.297 49.0411 102.293 49.1041 102.356C49.1671 102.418 49.1731 102.528 49.1161 102.601L47.9221 104.146C47.8921 104.184 47.8501 104.205 47.8111 104.205H47.8081Z" fill="#263238"/>
</g>
</g>
<g id="Clock">
<g id="Group_21">
<g id="Group_22">
<path id="Vector_116" d="M48.384 71.4448C47.247 68.4673 45.933 65.4897 43.863 63.2781C40.767 59.9762 36.429 58.8307 32.328 57.668C23.415 55.139 14.646 51.9475 6.08998 48.1177C4.43098 47.3759 2.82298 49.3081 3.53098 51.1884C4.31698 53.2793 5.21998 55.2977 6.38098 57.1401C8.45998 60.4385 11.508 63.147 15.024 63.6507C13.74 63.7991 12.381 63.9785 11.466 65.1688C11.001 65.7726 10.806 66.6145 11.04 67.3735C11.43 68.6329 12.687 68.8951 13.767 69.0331C15.9 69.3022 18.036 69.5713 20.169 69.8405C18.558 70.3269 17.538 72.4419 17.847 74.3223C18.156 76.2027 19.626 77.6863 21.261 78.0313C22.704 78.335 24.219 77.8278 25.413 76.8376C24.582 77.8485 24.54 79.6495 25.287 80.8053C26.154 82.1475 27.768 82.6443 29.205 82.3821C30.642 82.1199 31.932 81.2194 33.093 80.2119C33.777 81.8991 35.298 83.0963 36.915 83.2171C38.532 83.3378 40.176 82.3752 41.043 80.8053C41.778 83.6621 45.123 85.1319 47.328 83.5655C48.756 86.1601 50.184 88.7512 51.609 91.3458L52.773 85.9393C51.645 80.9848 50.178 76.1372 48.387 71.4483L48.384 71.4448Z" fill="#263238"/>
<g id="Group_23" opacity="0.8">
<path id="Vector_117" d="M48.384 71.4448C47.247 68.4673 45.933 65.4897 43.863 63.2781C40.767 59.9762 36.429 58.8307 32.328 57.668C23.415 55.139 14.646 51.9475 6.08998 48.1177C4.43098 47.3759 2.82298 49.3081 3.53098 51.1884C4.31698 53.2793 5.21998 55.2977 6.38098 57.1401C8.45998 60.4385 11.508 63.147 15.024 63.6507C13.74 63.7991 12.381 63.9785 11.466 65.1688C11.001 65.7726 10.806 66.6145 11.04 67.3735C11.43 68.6329 12.687 68.8951 13.767 69.0331C15.9 69.3022 18.036 69.5713 20.169 69.8405C18.558 70.3269 17.538 72.4419 17.847 74.3223C18.156 76.2027 19.626 77.6863 21.261 78.0313C22.704 78.335 24.219 77.8278 25.413 76.8376C24.582 77.8485 24.54 79.6495 25.287 80.8053C26.154 82.1475 27.768 82.6443 29.205 82.3821C30.642 82.1199 31.932 81.2194 33.093 80.2119C33.777 81.8991 35.298 83.0963 36.915 83.2171C38.532 83.3378 40.176 82.3752 41.043 80.8053C41.778 83.6621 45.123 85.1319 47.328 83.5655C48.756 86.1601 50.184 88.7512 51.609 91.3458L52.773 85.9393C51.645 80.9848 50.178 76.1372 48.387 71.4483L48.384 71.4448Z" fill="white"/>
</g>
</g>
<g id="Group_24">
<path id="Vector_118" d="M100.119 69.3643C101.487 66.5179 103.029 63.6887 105.267 61.7048C108.612 58.7376 113.022 58.051 117.198 57.323C126.273 55.7358 135.258 53.4725 144.081 50.5501C145.791 49.9843 147.24 52.0751 146.388 53.8727C145.44 55.8738 144.381 57.7887 143.082 59.5035C140.751 62.5708 137.502 64.948 133.959 65.0826C135.225 65.3655 136.566 65.6863 137.382 66.9664C137.796 67.615 137.925 68.4776 137.634 69.209C137.148 70.4235 135.876 70.5546 134.79 70.5753C132.642 70.6202 130.497 70.665 128.349 70.7099C129.915 71.362 130.764 73.5771 130.308 75.416C129.852 77.255 128.271 78.5799 126.615 78.7524C125.154 78.9042 123.687 78.2418 122.577 77.1274C123.324 78.2211 123.225 80.0187 122.388 81.0917C121.419 82.3407 119.772 82.665 118.359 82.2544C116.949 81.8438 115.737 80.8122 114.66 79.6874C113.847 81.2987 112.236 82.3303 110.616 82.282C108.996 82.2337 107.436 81.1055 106.695 79.4494C105.735 82.2199 102.291 83.3309 100.218 81.5437C98.5919 83.9761 96.9659 86.412 95.3399 88.8444L94.6079 83.3378C96.1229 78.5247 97.9679 73.8462 100.122 69.3643H100.119Z" fill="#263238"/>
<g id="Group_25" opacity="0.8">
<path id="Vector_119" d="M100.119 69.3643C101.487 66.5179 103.029 63.6887 105.267 61.7048C108.612 58.7376 113.022 58.051 117.198 57.323C126.273 55.7358 135.258 53.4725 144.081 50.5501C145.791 49.9843 147.24 52.0751 146.388 53.8727C145.44 55.8738 144.381 57.7887 143.082 59.5035C140.751 62.5708 137.502 64.948 133.959 65.0826C135.225 65.3655 136.566 65.6863 137.382 66.9664C137.796 67.615 137.925 68.4776 137.634 69.209C137.148 70.4235 135.876 70.5546 134.79 70.5753C132.642 70.6202 130.497 70.665 128.349 70.7099C129.915 71.362 130.764 73.5771 130.308 75.416C129.852 77.255 128.271 78.5799 126.615 78.7524C125.154 78.9042 123.687 78.2418 122.577 77.1274C123.324 78.2211 123.225 80.0187 122.388 81.0917C121.419 82.3407 119.772 82.665 118.359 82.2544C116.949 81.8438 115.737 80.8122 114.66 79.6874C113.847 81.2987 112.236 82.3303 110.616 82.282C108.996 82.2337 107.436 81.1055 106.695 79.4494C105.735 82.2199 102.291 83.3309 100.218 81.5437C98.5919 83.9761 96.9659 86.412 95.3399 88.8444L94.6079 83.3378C96.1229 78.5247 97.9679 73.8462 100.122 69.3643H100.119Z" fill="white"/>
</g>
</g>
<path id="Vector_120" d="M96.8532 87.4851C99.1031 71.9558 89.9809 57.2692 76.4781 54.6816C62.9754 52.094 50.2053 62.5854 47.9554 78.1147C45.7055 93.6439 54.8277 108.331 68.3305 110.918C81.8333 113.506 94.6033 103.014 96.8532 87.4851Z" fill="#7A8E98"/>
<path id="Vector_121" opacity="0.3" d="M96.8532 87.4851C99.1031 71.9558 89.9809 57.2692 76.4781 54.6816C62.9754 52.094 50.2053 62.5854 47.9554 78.1147C45.7055 93.6439 54.8277 108.331 68.3305 110.918C81.8333 113.506 94.6033 103.014 96.8532 87.4851Z" fill="black"/>
<path id="Vector_122" d="M98.1297 81.2406C100.38 65.7113 91.2574 51.0247 77.7546 48.4371C64.2518 45.8495 51.4818 56.3409 49.2319 71.8701C46.982 87.3994 56.1042 102.086 69.607 104.674C83.1098 107.261 95.8798 96.7698 98.1297 81.2406Z" fill="#7A8E98"/>
<path id="Vector_123" d="M89.7788 95.0713C98.6687 84.8472 98.6687 68.2707 89.7788 58.0466C80.8889 47.8225 66.4755 47.8225 57.5856 58.0466C48.6957 68.2707 48.6957 84.8472 57.5856 95.0713C66.4755 105.295 80.8889 105.295 89.7788 95.0713Z" fill="#7A8E98"/>
<path id="Vector_124" opacity="0.7" d="M89.7788 95.0713C98.6687 84.8472 98.6687 68.2707 89.7788 58.0466C80.8889 47.8225 66.4755 47.8225 57.5856 58.0466C48.6957 68.2707 48.6957 84.8472 57.5856 95.0713C66.4755 105.295 80.8889 105.295 89.7788 95.0713Z" fill="white"/>
<path id="Vector_125" opacity="0.4" d="M81.984 52.1718L52.02 84.6213C52.02 84.6213 54.084 90.6247 55.962 92.9916L88.164 56.3569C88.164 56.3569 85.413 53.5311 81.984 52.1752V52.1718Z" fill="white"/>
<path id="Vector_126" opacity="0.4" d="M91.0979 59.8831L57.5609 95.0411C57.5609 95.0411 58.0859 96.0037 60.5039 97.8013L93.6119 63.8302C93.6119 63.8302 93.2279 62.457 91.0979 59.8796V59.8831Z" fill="white"/>
<g id="Group_26">
<g id="Group_27">
<path id="Vector_127" d="M73.119 53.2206V56.3466H72.615V53.7071H72.042V53.2206H73.122H73.119Z" fill="#263238"/>
<path id="Vector_128" d="M75.627 55.8566V56.3465H73.623V55.9566L74.703 54.7766C74.826 54.6421 74.907 54.5248 74.949 54.4247C74.991 54.3247 75.012 54.2246 75.012 54.128C75.012 53.9831 74.97 53.8692 74.883 53.7933C74.796 53.7174 74.673 53.676 74.505 53.676C74.229 53.676 74.016 53.783 73.869 54.0003L73.515 53.6864C73.62 53.5242 73.764 53.3965 73.944 53.3034C74.124 53.2137 74.325 53.1688 74.547 53.1688C74.841 53.1688 75.078 53.2482 75.255 53.4103C75.432 53.5725 75.519 53.7899 75.519 54.0659C75.519 54.235 75.489 54.3937 75.426 54.542C75.363 54.6904 75.246 54.8594 75.069 55.0492L74.343 55.8428H75.624L75.627 55.8566Z" fill="#263238"/>
</g>
<path id="Vector_129" d="M73.8959 97.8461C74.0369 97.9254 74.1479 98.0359 74.2289 98.1842C74.3099 98.3291 74.3489 98.4982 74.3489 98.688C74.3489 98.8915 74.3039 99.0675 74.2169 99.2227C74.1299 99.3746 74.0099 99.4953 73.8599 99.5781C73.7099 99.6609 73.5419 99.7023 73.3559 99.7023C72.9839 99.7023 72.6929 99.5678 72.4889 99.2987C72.2819 99.0295 72.1799 98.6466 72.1799 98.1463C72.1799 97.7943 72.2369 97.4942 72.3479 97.2458C72.4589 96.9973 72.6149 96.8076 72.8159 96.6799C73.0169 96.5488 73.2479 96.4867 73.5119 96.4867C73.6529 96.4867 73.7819 96.504 73.9049 96.5385C74.0279 96.573 74.1359 96.6213 74.2259 96.6868L74.0399 97.125C73.9049 97.0249 73.7339 96.9732 73.5239 96.9732C73.2629 96.9732 73.0589 97.0663 72.9119 97.2492C72.7649 97.4355 72.6899 97.7012 72.6899 98.0497C72.7709 97.9461 72.8729 97.8668 72.9959 97.8116C73.1189 97.7564 73.2599 97.7288 73.4159 97.7288C73.5959 97.7288 73.7549 97.7667 73.8989 97.8461H73.8959ZM73.7129 99.102C73.8119 99.0054 73.8599 98.8777 73.8599 98.7156C73.8599 98.5534 73.8119 98.4223 73.7129 98.3257C73.6139 98.2291 73.4819 98.1842 73.3169 98.1842C73.1519 98.1842 73.0199 98.236 72.9179 98.336C72.8159 98.4361 72.7649 98.5672 72.7649 98.719C72.7649 98.8708 72.8159 98.995 72.9149 99.0951C73.0139 99.1951 73.1519 99.2434 73.3289 99.2434C73.4879 99.2434 73.6139 99.1951 73.7129 99.0985V99.102Z" fill="#263238"/>
<path id="Vector_130" d="M83.283 57.0056V60.1315H82.779V57.4921H82.203V57.0056H83.283Z" fill="#263238"/>
<path id="Vector_131" d="M83.5019 94.7719C83.6849 94.9444 83.7779 95.1756 83.7779 95.4723C83.7779 95.6586 83.7389 95.8311 83.6579 95.9829C83.5769 96.1347 83.4569 96.2555 83.2979 96.3452C83.1359 96.4349 82.9379 96.4798 82.7039 96.4798C82.5089 96.4798 82.3229 96.4487 82.1399 96.3832C81.9599 96.3176 81.8069 96.2314 81.6809 96.1175L81.8939 95.6655C81.9959 95.7621 82.1159 95.8346 82.2569 95.8898C82.3979 95.945 82.5449 95.9726 82.6949 95.9726C82.8749 95.9726 83.0129 95.9312 83.1149 95.8449C83.2169 95.7587 83.2679 95.6448 83.2679 95.493C83.2679 95.3308 83.2139 95.2101 83.1029 95.1307C82.9919 95.0479 82.8059 95.0065 82.5389 95.0065H81.8819L82.0229 93.3055H83.6189V93.792H82.4489L82.3919 94.5166H82.6529C83.0369 94.5166 83.3189 94.6028 83.5019 94.7719Z" fill="#263238"/>
<g id="Group_28">
<path id="Vector_132" d="M63.9749 57.0056V60.1315H63.471V57.4921H62.8979V57.0056H63.9779H63.9749Z" fill="#263238"/>
<path id="Vector_133" d="M65.4539 57.0056V60.1315H64.9499V57.4921H64.3739V57.0056H65.4539Z" fill="#263238"/>
</g>
<g id="Group_29">
<path id="Vector_134" d="M63.9749 93.3055V96.4315H63.471V93.792H62.8979V93.3055H63.9779H63.9749Z" fill="#263238"/>
<path id="Vector_135" d="M65.4539 93.3055V96.4315H64.9499V93.792H64.3739V93.3055H65.4539Z" fill="#263238"/>
</g>
<path id="Vector_136" d="M90.135 66.442V66.9319H88.1309V66.5421L89.2109 65.3621C89.3339 65.2275 89.4149 65.1102 89.4569 65.0102C89.4989 64.9101 89.5199 64.81 89.5199 64.7134C89.5199 64.5685 89.4779 64.4547 89.3909 64.3788C89.3039 64.3029 89.1809 64.2615 89.0129 64.2615C88.7369 64.2615 88.5239 64.3684 88.3769 64.5858L88.0229 64.2718C88.1279 64.1096 88.2719 63.982 88.4519 63.8888C88.6319 63.7991 88.8329 63.7543 89.0549 63.7543C89.3489 63.7543 89.5859 63.8336 89.7629 63.9958C89.9399 64.158 90.0269 64.3753 90.0269 64.6513C90.0269 64.8204 89.9969 64.9791 89.9339 65.1275C89.8709 65.2758 89.7539 65.4449 89.5769 65.6347L88.851 66.4282H90.1319L90.135 66.442Z" fill="#263238"/>
<path id="Vector_137" d="M90.6719 87.8163H90.1919V88.527H89.7029V87.8163H88.2119V87.4126L89.5499 85.3976H90.0899L88.8269 87.3229H89.7149V86.6949H90.1889V87.3229H90.6689V87.8128L90.6719 87.8163Z" fill="#263238"/>
<g id="Group_30">
<path id="Vector_138" d="M57.8609 63.806V66.9319H57.3569V64.2925H56.7809V63.806H57.8609Z" fill="#263238"/>
<path id="Vector_139" d="M58.9529 66.787C58.7819 66.6593 58.6469 66.4765 58.5479 66.235C58.4489 65.9934 58.4009 65.7036 58.4009 65.3724C58.4009 65.0412 58.4489 64.7514 58.5479 64.5098C58.6469 64.2683 58.7819 64.082 58.9529 63.9543C59.1239 63.8267 59.3189 63.7646 59.5349 63.7646C59.7509 63.7646 59.9459 63.8267 60.1199 63.9543C60.2909 64.082 60.4259 64.2649 60.5249 64.5098C60.6239 64.7514 60.6719 65.0412 60.6719 65.3724C60.6719 65.7036 60.6239 65.9934 60.5249 66.235C60.4259 66.4765 60.2909 66.6628 60.1199 66.787C59.9489 66.9147 59.7539 66.9768 59.5349 66.9768C59.3159 66.9768 59.1239 66.9147 58.9529 66.787ZM59.9939 66.197C60.1049 66.0141 60.1619 65.7381 60.1619 65.3724C60.1619 65.0067 60.1049 64.7307 59.9939 64.5478C59.8829 64.3615 59.7269 64.2718 59.5349 64.2718C59.3429 64.2718 59.1899 64.3649 59.0789 64.5478C58.9649 64.7341 58.9109 65.0067 58.9109 65.3724C58.9109 65.7381 58.9679 66.0141 59.0789 66.197C59.1899 66.3833 59.3429 66.473 59.5349 66.473C59.7269 66.473 59.8829 66.3799 59.9939 66.197Z" fill="#263238"/>
</g>
<path id="Vector_140" d="M59.013 87.1366C59.088 87.2642 59.127 87.4126 59.127 87.5817C59.127 87.7714 59.082 87.9405 58.989 88.0819C58.896 88.2234 58.767 88.3338 58.599 88.4097C58.431 88.4856 58.236 88.5236 58.014 88.5236C57.792 88.5236 57.597 88.4856 57.429 88.4097C57.261 88.3338 57.132 88.2234 57.042 88.0819C56.952 87.9405 56.907 87.7714 56.907 87.5817C56.907 87.4126 56.943 87.2642 57.021 87.1366C57.096 87.0089 57.204 86.9089 57.342 86.8364C57.234 86.7674 57.15 86.6777 57.093 86.5673C57.036 86.4569 57.006 86.3258 57.006 86.1809C57.006 86.0049 57.048 85.8531 57.132 85.722C57.216 85.5909 57.336 85.4908 57.486 85.4184C57.639 85.3459 57.816 85.3114 58.014 85.3114C58.212 85.3114 58.392 85.3459 58.545 85.4184C58.698 85.4908 58.818 85.5909 58.902 85.722C58.986 85.8531 59.031 86.0049 59.031 86.1809C59.031 86.3258 59.001 86.4534 58.941 86.5638C58.881 86.6742 58.797 86.7639 58.686 86.8364C58.827 86.9123 58.938 87.0124 59.013 87.1366ZM58.455 87.9336C58.563 87.8439 58.617 87.7197 58.617 87.5644C58.617 87.4091 58.563 87.2884 58.455 87.1987C58.347 87.109 58.2 87.0641 58.011 87.0641C57.822 87.0641 57.678 87.109 57.573 87.1987C57.468 87.2884 57.414 87.4091 57.414 87.5644C57.414 87.7197 57.468 87.8473 57.573 87.9336C57.678 88.0233 57.825 88.0681 58.011 88.0681C58.197 88.0681 58.344 88.0233 58.455 87.9336ZM57.639 85.8807C57.546 85.9566 57.501 86.067 57.501 86.2085C57.501 86.3499 57.546 86.45 57.639 86.5259C57.732 86.6052 57.855 86.6432 58.014 86.6432C58.173 86.6432 58.302 86.6052 58.395 86.5259C58.488 86.4465 58.536 86.3396 58.536 86.2085C58.536 86.0774 58.488 85.96 58.395 85.8807C58.299 85.8048 58.173 85.7634 58.017 85.7634C57.861 85.7634 57.735 85.8013 57.642 85.8807H57.639Z" fill="#263238"/>
<path id="Vector_141" d="M92.5079 76.2579C92.6399 76.4201 92.7059 76.6202 92.7059 76.8617C92.7059 77.0446 92.6669 77.2068 92.5859 77.3586C92.5049 77.5069 92.3849 77.6242 92.2229 77.714C92.0609 77.8002 91.8629 77.8451 91.6319 77.8451C91.4369 77.8451 91.2509 77.814 91.0709 77.7484C90.8909 77.6829 90.7379 77.5966 90.6119 77.4828L90.8279 77.0308C90.9269 77.1274 91.0469 77.1999 91.1879 77.2551C91.3289 77.3103 91.4759 77.3379 91.6259 77.3379C91.8059 77.3379 91.9439 77.2965 92.0459 77.2102C92.1479 77.124 92.1989 77.0101 92.1989 76.8652C92.1989 76.7203 92.1509 76.6064 92.0519 76.5236C91.9559 76.4408 91.8059 76.3994 91.6079 76.3994H91.3589V76.0026L91.9769 75.1573H90.7409V74.6708H92.5919V75.0573L91.9319 75.9578C92.1839 75.9923 92.3759 76.0923 92.5079 76.251V76.2579Z" fill="#263238"/>
<path id="Vector_142" d="M56.007 75.0297C56.214 75.2988 56.316 75.6817 56.316 76.182C56.316 76.534 56.259 76.8341 56.148 77.0825C56.037 77.331 55.881 77.5207 55.68 77.6484C55.479 77.7795 55.248 77.8416 54.984 77.8416C54.843 77.8416 54.714 77.8244 54.591 77.7899C54.468 77.7554 54.36 77.707 54.27 77.6415L54.456 77.2033C54.591 77.3034 54.762 77.3551 54.972 77.3551C55.233 77.3551 55.437 77.262 55.584 77.0791C55.731 76.8962 55.806 76.6271 55.806 76.2786C55.725 76.3821 55.623 76.4615 55.5 76.5167C55.377 76.5719 55.236 76.5995 55.08 76.5995C54.9 76.5995 54.741 76.5616 54.6 76.4822C54.459 76.4029 54.345 76.2924 54.267 76.1441C54.186 75.9992 54.147 75.8301 54.147 75.6403C54.147 75.4368 54.192 75.2608 54.279 75.1056C54.366 74.9537 54.486 74.833 54.636 74.7502C54.786 74.6674 54.954 74.626 55.14 74.626C55.512 74.626 55.803 74.7605 56.007 75.0262V75.0297ZM55.575 75.9923C55.677 75.8922 55.728 75.7646 55.728 75.6093C55.728 75.454 55.677 75.3333 55.578 75.2332C55.479 75.1332 55.341 75.0849 55.164 75.0849C55.005 75.0849 54.879 75.1332 54.78 75.2298C54.681 75.3264 54.633 75.454 54.633 75.6162C54.633 75.7784 54.681 75.9095 54.78 76.0061C54.879 76.1027 55.011 76.1475 55.176 76.1475C55.341 76.1475 55.473 76.0958 55.575 75.9957V75.9923Z" fill="#263238"/>
</g>
<g id="Group_31">
<path id="Vector_143" d="M73.2 76.6167L73.701 59.6312H74.4029L75.234 76.6167H73.2Z" fill="#263238"/>
<path id="Vector_144" d="M73.3289 77.7553L66.4319 69.8508L66.8999 69.2505L74.6909 76.0164L73.3289 77.7553Z" fill="#263238"/>
<path id="Vector_145" d="M69.5939 80.2498L85.7039 69.7231L69.9329 80.8157L69.5939 80.2498Z" fill="#7A8E98"/>
<path id="Vector_146" d="M76.3528 76.6167C76.3528 77.9727 75.3958 79.0733 74.2168 79.0733C73.0378 79.0733 72.0808 77.9727 72.0808 76.6167C72.0808 75.2608 73.0378 74.1602 74.2168 74.1602C75.3958 74.1602 76.3528 75.2608 76.3528 76.6167Z" fill="#7A8E98"/>
<path id="Vector_147" opacity="0.3" d="M76.3528 76.6167C76.3528 77.9727 75.3958 79.0733 74.2168 79.0733C73.0378 79.0733 72.0808 77.9727 72.0808 76.6167C72.0808 75.2608 73.0378 74.1602 74.2168 74.1602C75.3958 74.1602 76.3528 75.2608 76.3528 76.6167Z" fill="black"/>
</g>
<path id="Vector_148" d="M56.751 101.452C56.751 101.452 52.752 110.277 54.102 110.405C55.452 110.533 60.135 104.274 60.135 104.274C60.135 104.274 59.634 101.176 56.754 101.452H56.751Z" fill="#7A8E98"/>
<path id="Vector_149" d="M90.462 100.596C90.462 100.596 94.461 109.422 93.111 109.549C91.761 109.677 87.078 103.418 87.078 103.418C87.078 103.418 87.579 100.32 90.459 100.596H90.462Z" fill="#7A8E98"/>
<g id="Group_32">
<path id="Vector_150" d="M46.968 61.7116C47.115 61.5081 63.996 43.9325 63.996 43.9325C63.996 43.9325 57.531 37.4944 49.956 46.1545C42.381 54.8112 46.968 61.7116 46.968 61.7116Z" fill="#7A8E98"/>
<g id="Group_33">
<path id="Vector_151" d="M63.9959 43.9326C64.6769 44.7848 61.2329 49.2977 56.5619 54.2178C51.8939 59.1378 47.5589 62.4363 46.8779 61.5806C46.1969 60.7284 49.4309 56.0464 54.1019 51.1264C58.7699 46.2063 63.3149 43.077 63.9959 43.9292V43.9326Z" fill="#7A8E98"/>
<path id="Vector_152" opacity="0.3" d="M63.9959 43.9326C64.6769 44.7848 61.2329 49.2977 56.5619 54.2178C51.8939 59.1378 47.5589 62.4363 46.8779 61.5806C46.1969 60.7284 49.4309 56.0464 54.1019 51.1264C58.7699 46.2063 63.3149 43.077 63.9959 43.9292V43.9326Z" fill="black"/>
</g>
<path id="Vector_153" d="M53.1056 46.6502L50.5907 49.3005L56.4805 56.6927L58.9953 54.0424L53.1056 46.6502Z" fill="#7A8E98"/>
<path id="Vector_154" d="M50.6699 49.3012C52.0153 49.3012 53.1059 48.0469 53.1059 46.4996C53.1059 44.9523 52.0153 43.698 50.6699 43.698C49.3245 43.698 48.2339 44.9523 48.2339 46.4996C48.2339 48.0469 49.3245 49.3012 50.6699 49.3012Z" fill="#7A8E98"/>
<path id="Vector_155" opacity="0.4" d="M49.9439 46.4133L48.5669 47.9038C48.3719 48.1798 44.9849 53.7071 47.8079 58.9135C48.8789 57.2401 50.1449 55.5978 51.5339 53.9762C50.0699 52.6168 48.3899 50.1085 49.9439 46.4133Z" fill="white"/>
<path id="Vector_156" opacity="0.2" d="M52.9949 52.3235L55.5239 49.6875L56.0879 50.3982L53.6909 53.1998L52.9949 52.3235Z" fill="black"/>
<path id="Vector_157" opacity="0.3" d="M48.567 47.9038L52.008 44.1602L51.732 43.9808L48.411 47.5415L48.567 47.9038Z" fill="black"/>
</g>
<g id="Group_34">
<path id="Vector_158" d="M82.4939 43.7048C82.6889 43.8429 100.239 60.5317 100.239 60.5317C100.239 60.5317 104.85 52.2477 96.3119 44.871C87.7739 37.4944 82.4939 43.7048 82.4939 43.7048Z" fill="#7A8E98"/>
<g id="Group_35">
<path id="Vector_159" d="M100.239 60.5317C99.603 61.4288 95.226 58.158 90.321 53.5484C85.416 48.9424 81.957 44.4812 82.593 43.5841C83.229 42.6871 87.72 45.6957 92.625 50.3017C97.53 54.9078 100.875 59.6312 100.239 60.5283V60.5317Z" fill="#7A8E98"/>
<path id="Vector_160" opacity="0.3" d="M100.239 60.5317C99.603 61.4288 95.226 58.158 90.321 53.5484C85.416 48.9424 81.957 44.4812 82.593 43.5841C83.229 42.6871 87.72 45.6957 92.625 50.3017C97.53 54.9078 100.875 59.6312 100.239 60.5283V60.5317Z" fill="black"/>
</g>
<path id="Vector_161" d="M96.3337 48.5272L93.6919 46.0457L88.1771 53.8112L90.819 56.2927L96.3337 48.5272Z" fill="#7A8E98"/>
<path id="Vector_162" d="M96.4679 48.5041C95.1359 48.7249 93.9029 47.6657 93.7079 46.1338C93.5159 44.6019 94.4369 43.1839 95.7689 42.9596C97.1009 42.7388 98.3339 43.798 98.5289 45.3299C98.7209 46.8618 97.7999 48.2799 96.4679 48.5041Z" fill="#7A8E98"/>
<path id="Vector_163" opacity="0.4" d="M96.0868 44.8952L94.6048 43.5427C94.3378 43.3598 89.0968 40.2994 85.0228 44.2603C86.6158 45.2367 88.2118 46.4443 89.8078 47.7934C90.7648 45.9302 92.6848 43.66 96.0868 44.8952Z" fill="white"/>
<path id="Vector_164" opacity="0.2" d="M91.4398 49.2149L94.0708 51.7129L93.5428 52.4581L90.7888 50.1327L91.4398 49.2149Z" fill="black"/>
<path id="Vector_165" opacity="0.3" d="M94.6079 43.5392L98.3249 46.917L98.4389 46.5789L94.8959 43.3115L94.6079 43.5392Z" fill="black"/>
</g>
<path id="Vector_166" opacity="0.3" d="M56.2049 56.3465C56.2049 56.3465 58.0769 54.4351 58.7999 53.7968L58.5629 53.5001L55.9919 56.0843L56.2019 56.35L56.2049 56.3465Z" fill="black"/>
<path id="Vector_167" opacity="0.3" d="M88.374 53.5588C88.374 53.5588 90.309 55.3839 90.972 56.1085L91.188 55.7945L88.566 53.2793L88.371 53.5588H88.374Z" fill="black"/>
<g id="Group_36">
<path id="Vector_168" opacity="0.3" d="M19.089 62.1154C19.089 62.1154 33.783 64.4063 36.873 66.8974C39.963 69.3919 46.257 79.1665 46.257 79.1665C46.257 79.1665 38.535 69.7921 35.445 67.6047C32.355 65.4172 19.089 62.1154 19.089 62.1154Z" fill="black"/>
<path id="Vector_169" opacity="0.3" d="M25.0979 66.7767C25.0979 66.7767 23.7479 71.6381 27.0929 71.5035C30.4409 71.3689 31.7909 69.6818 31.7909 69.6818C31.7909 69.6818 30.8519 74.1395 33.3749 74.0705C35.9009 74.0015 37.6619 72.1798 37.6619 72.1798C37.6619 72.1798 34.0199 75.7508 32.2589 74.9124C30.4979 74.0705 31.2449 71.1688 31.2449 71.1688C31.2449 71.1688 27.1199 73.4736 25.4159 71.8589C23.7119 70.2442 24.0449 69.5058 25.0949 66.7801L25.0979 66.7767Z" fill="black"/>
</g>
<g id="Group_37">
<path id="Vector_170" opacity="0.3" d="M128.28 61.1942C128.28 61.1942 113.586 63.4851 110.496 65.9762C107.406 68.4707 101.112 78.2453 101.112 78.2453C101.112 78.2453 108.834 68.8709 111.924 66.6835C115.014 64.496 128.28 61.1942 128.28 61.1942Z" fill="black"/>
<path id="Vector_171" opacity="0.3" d="M122.271 65.8589C122.271 65.8589 123.621 70.7203 120.276 70.5857C116.928 70.4512 115.578 68.764 115.578 68.764C115.578 68.764 116.517 73.2217 113.994 73.1527C111.468 73.0837 109.707 71.262 109.707 71.262C109.707 71.262 113.349 74.833 115.11 73.9946C116.871 73.1527 116.124 70.251 116.124 70.251C116.124 70.251 120.249 72.5558 121.953 70.9411C123.657 69.3264 123.324 68.588 122.274 65.8623L122.271 65.8589Z" fill="black"/>
</g>
<g id="Group_38">
<path id="Vector_172" d="M65.034 48.6007C64.989 48.6007 64.944 48.5697 64.929 48.5145C64.908 48.4489 64.938 48.373 64.995 48.3489C69.666 46.3719 74.904 46.0131 79.743 47.3449C79.803 47.3621 79.842 47.4311 79.827 47.5001C79.812 47.5691 79.752 47.6105 79.692 47.5967C74.892 46.2753 69.702 46.6307 65.073 48.5904C65.061 48.5973 65.046 48.5973 65.034 48.5973V48.6007Z" fill="#7A8E98"/>
<path id="Vector_173" d="M81.114 48.0418C81.114 48.0418 81.093 48.0418 81.084 48.0384L80.343 47.7969C80.283 47.7762 80.247 47.7071 80.265 47.6381C80.283 47.5691 80.343 47.5277 80.403 47.5484L81.144 47.79C81.204 47.8107 81.24 47.8797 81.222 47.9487C81.207 48.0073 81.162 48.0418 81.114 48.0418Z" fill="#7A8E98"/>
</g>
</g>
</g>
</g>
</svg>
